<svg width="1440" height="1024" viewBox="0 0 1440 1024" fill="none" xmlns="http://www.w3.org/2000/svg">
<g clip-path="url(#clip0_91_58)">
<rect width="1440" height="1024" fill="white"/>
<path fill-rule="evenodd" clip-rule="evenodd" d="M-334.291 1137.44C-360.584 1057.4 -281.696 986.817 -241.994 912.505C-215.609 863.12 -189.624 817.121 -145.051 783.234C-91.8516 742.791 -31.8805 682.655 31.1518 704.852C93.9224 726.958 88.815 816.328 118.315 875.982C144.275 928.475 191.754 969.902 191.186 1028.46C190.452 1104.15 174.115 1186.04 114.852 1233.14C49.4499 1285.11 -40.4157 1294.85 -122.12 1277.44C-208.271 1259.09 -306.802 1221.13 -334.291 1137.44Z" stroke="url(#paint0_linear_91_58)" stroke-width="1.5"/>
<path fill-rule="evenodd" clip-rule="evenodd" d="M-227.637 881.041C-153.832 840.404 -69.8836 904.884 10.4871 930.164C63.8991 946.964 113.909 963.997 155.451 1001.54C205.032 1046.34 275.219 1094.16 265.056 1160.21C254.936 1225.99 166.161 1237.49 112.99 1277.51C66.201 1312.73 34.265 1367.05 -23.3888 1377.31C-97.9144 1390.58 -181.412 1389.67 -238.653 1340.13C-301.822 1285.47 -328.002 1198.95 -325.998 1115.43C-323.886 1027.38 -304.798 923.527 -227.637 881.041Z" stroke="url(#paint1_linear_91_58)" stroke-width="1.5"/>
<path fill-rule="evenodd" clip-rule="evenodd" d="M183.534 837.361C243.733 896.306 206.21 995.286 205.188 1079.53C204.508 1135.52 202.625 1188.32 178.663 1238.92C150.063 1299.32 124.521 1380.32 58.348 1389.64C-7.55051 1398.92 -44.1712 1317.24 -97.8274 1277.87C-145.043 1243.23 -206.265 1228.32 -232.727 1176.08C-266.932 1108.55 -290.14 1028.34 -259.221 959.24C-225.099 882.988 -149.812 832.964 -69.2692 810.792C15.6563 787.414 120.597 775.735 183.534 837.361Z" stroke="url(#paint2_linear_91_58)" stroke-width="1.5"/>
<path fill-rule="evenodd" clip-rule="evenodd" d="M1308.71 663.444C1282.42 583.399 1361.3 512.817 1401.01 438.505C1427.39 389.12 1453.38 343.121 1497.95 309.234C1551.15 268.791 1611.12 208.655 1674.15 230.852C1736.92 252.958 1731.81 342.328 1761.32 401.982C1787.27 454.475 1834.75 495.902 1834.19 554.46C1833.45 630.155 1817.12 712.044 1757.85 759.14C1692.45 811.114 1602.58 820.85 1520.88 803.441C1434.73 785.086 1336.2 747.129 1308.71 663.444Z" stroke="url(#paint3_linear_91_58)" stroke-width="1.5"/>
<path fill-rule="evenodd" clip-rule="evenodd" d="M1826.54 363.361C1886.73 422.306 1849.21 521.286 1848.19 605.533C1847.51 661.521 1845.63 714.318 1821.66 764.923C1793.06 825.321 1767.52 906.318 1701.35 915.64C1635.45 924.923 1598.83 843.24 1545.17 803.872C1497.96 769.23 1436.74 754.32 1410.27 702.079C1376.07 634.549 1352.86 554.336 1383.78 485.24C1417.9 408.988 1493.19 358.964 1573.73 336.792C1658.66 313.414 1763.6 301.735 1826.54 363.361Z" stroke="url(#paint4_linear_91_58)" stroke-width="1.5"/>
<path fill-rule="evenodd" clip-rule="evenodd" d="M121.889 51.3159C117.016 123.283 31.7278 153.923 -23.667 200.122C-60.4808 230.824 -95.8883 258.968 -142.151 271.525C-197.366 286.511 -264.286 314.945 -307.163 277.066C-349.862 239.344 -317.075 170.073 -321.303 113.256C-325.023 63.258 -349.376 15.1214 -330.098 -31.1598C-305.179 -90.9848 -265.887 -150.709 -203.721 -169.023C-135.116 -189.235 -60.681 -168.067 -1.44825 -127.984C61.0076 -85.7203 126.985 -23.9236 121.889 51.3159Z" stroke="url(#paint5_linear_91_58)" stroke-width="2"/>
<path fill-rule="evenodd" clip-rule="evenodd" d="M-267.236 -82.5753C-213.639 -130.849 -131.08 -93.4739 -59.1509 -88.0788C-11.3487 -84.4934 33.6628 -80.0502 75.6163 -56.8596C125.688 -29.1814 193.525 -3.00971 197.938 54.0323C202.333 110.837 130.573 137.744 94.056 181.477C61.922 219.961 45.8963 271.472 -0.161655 291.278C-59.6979 316.88 -129.482 332.404 -186.861 302.277C-250.183 269.03 -288.885 202.016 -303.507 132.006C-318.924 58.1868 -323.271 -32.1066 -267.236 -82.5753Z" stroke="url(#paint6_linear_91_58)" stroke-width="2"/>
<path fill-rule="evenodd" clip-rule="evenodd" d="M-459.793 297.964C-482.304 229.435 -414.765 169.008 -380.775 105.387C-358.186 63.1061 -335.94 23.7248 -297.779 -5.28623C-252.234 -39.9111 -200.891 -91.3957 -146.927 -72.3917C-93.1867 -53.4666 -97.5594 23.0466 -72.3031 74.1177C-50.0785 119.058 -9.4302 154.526 -9.91639 204.659C-10.5449 269.464 -24.5311 339.572 -75.2685 379.892C-131.261 424.389 -208.198 432.724 -278.148 417.82C-351.904 402.105 -436.259 369.609 -459.793 297.964Z" stroke="url(#paint7_linear_91_58)" stroke-width="1.5"/>
</g>
<defs>
<linearGradient id="paint0_linear_91_58" x1="-315.437" y1="1176.1" x2="163.888" y2="899.204" gradientUnits="userSpaceOnUse">
<stop stop-color="#D42B00"/>
<stop offset="0.192114" stop-color="#ED7626"/>
<stop offset="0.419052" stop-color="#FF9A54"/>
<stop offset="0.568353" stop-color="#D163A2"/>
<stop offset="0.795291" stop-color="#B55690"/>
<stop offset="1" stop-color="#A30262"/>
</linearGradient>
<linearGradient id="paint1_linear_91_58" x1="-262.143" y1="906.716" x2="98.5927" y2="1326.59" gradientUnits="userSpaceOnUse">
<stop stop-color="#D42B00"/>
<stop offset="0.192114" stop-color="#ED7626"/>
<stop offset="0.419052" stop-color="#FF9A54"/>
<stop offset="0.568353" stop-color="#D163A2"/>
<stop offset="0.795291" stop-color="#B55690"/>
<stop offset="1" stop-color="#A30262"/>
</linearGradient>
<linearGradient id="paint2_linear_91_58" x1="148.998" y1="811.728" x2="-148.974" y2="1278.24" gradientUnits="userSpaceOnUse">
<stop stop-color="#D42B00"/>
<stop offset="0.192114" stop-color="#ED7626"/>
<stop offset="0.419052" stop-color="#FF9A54"/>
<stop offset="0.568353" stop-color="#D163A2"/>
<stop offset="0.795291" stop-color="#B55690"/>
<stop offset="1" stop-color="#A30262"/>
</linearGradient>
<linearGradient id="paint3_linear_91_58" x1="1327.56" y1="702.101" x2="1806.89" y2="425.204" gradientUnits="userSpaceOnUse">
<stop stop-color="#D42B00"/>
<stop offset="0.192114" stop-color="#ED7626"/>
<stop offset="0.419052" stop-color="#FF9A54"/>
<stop offset="0.568353" stop-color="#D163A2"/>
<stop offset="0.795291" stop-color="#B55690"/>
<stop offset="1" stop-color="#A30262"/>
</linearGradient>
<linearGradient id="paint4_linear_91_58" x1="1792" y1="337.728" x2="1494.03" y2="804.244" gradientUnits="userSpaceOnUse">
<stop stop-color="#D42B00"/>
<stop offset="0.192114" stop-color="#ED7626"/>
<stop offset="0.419052" stop-color="#FF9A54"/>
<stop offset="0.568353" stop-color="#D163A2"/>
<stop offset="0.795291" stop-color="#B55690"/>
<stop offset="1" stop-color="#A30262"/>
</linearGradient>
<linearGradient id="paint5_linear_91_58" x1="119.359" y1="14.5809" x2="-349.996" y2="80.1771" gradientUnits="userSpaceOnUse">
<stop stop-color="#D42B00"/>
<stop offset="0.192114" stop-color="#ED7626"/>
<stop offset="0.419052" stop-color="#FF9A54"/>
<stop offset="0.568353" stop-color="#D163A2"/>
<stop offset="0.795291" stop-color="#B55690"/>
<stop offset="1" stop-color="#A30262"/>
</linearGradient>
<linearGradient id="paint6_linear_91_58" x1="-290.992" y1="-54.4414" x2="91.6286" y2="225.199" gradientUnits="userSpaceOnUse">
<stop stop-color="#D42B00"/>
<stop offset="0.192114" stop-color="#ED7626"/>
<stop offset="0.419052" stop-color="#FF9A54"/>
<stop offset="0.568353" stop-color="#D163A2"/>
<stop offset="0.795291" stop-color="#B55690"/>
<stop offset="1" stop-color="#A30262"/>
</linearGradient>
<linearGradient id="paint7_linear_91_58" x1="-443.653" y1="331.06" x2="-33.2873" y2="93.9991" gradientUnits="userSpaceOnUse">
<stop stop-color="#D42B00"/>
<stop offset="0.192114" stop-color="#ED7626"/>
<stop offset="0.419052" stop-color="#FF9A54"/>
<stop offset="0.568353" stop-color="#D163A2"/>
<stop offset="0.795291" stop-color="#B55690"/>
<stop offset="1" stop-color="#A30262"/>
</linearGradient>
<clipPath id="clip0_91_58">
<rect width="1440" height="1024" fill="white"/>
</clipPath>
</defs>
</svg>
