<svg width="1440" height="1024" viewBox="0 0 1440 1024" fill="none" xmlns="http://www.w3.org/2000/svg">
<g clip-path="url(#clip0_91_152)">
<rect width="1440" height="1024" fill="white"/>
<path fill-rule="evenodd" clip-rule="evenodd" d="M1757.9 483.857C1701.62 504.874 1657.72 558.675 1596.79 547.809C1523.32 534.706 1441.34 496.085 1411.05 421.998C1381.18 348.929 1431.97 278.124 1457.77 207.746C1481.77 142.246 1491.12 57.4447 1553.29 33.8875C1614.45 10.7157 1677.1 70.3243 1739.15 101.136C1795.76 129.25 1857.61 147.439 1893.28 202.722C1934.95 267.294 1975.2 352.985 1943.78 418.243C1912.99 482.174 1821.87 459.969 1757.9 483.857Z" stroke="url(#paint0_linear_91_152)" stroke-width="2"/>
<path fill-rule="evenodd" clip-rule="evenodd" d="M1743.53 548.586C1677.98 559.086 1617.65 604.256 1554.97 582.393C1479.39 556.031 1400.97 502.891 1386.73 424.128C1372.68 346.447 1444.6 285.728 1489.6 220.868C1531.48 160.504 1562.38 78.3848 1634.88 66.448C1706.18 54.7065 1758.71 125.065 1817.67 166.848C1871.47 204.972 1933.32 234.239 1957.97 295.397C1986.76 366.832 2008.84 458.885 1959.06 517.656C1910.3 575.231 1818.03 536.65 1743.53 548.586Z" stroke="url(#paint1_linear_91_152)" stroke-width="2"/>
<path fill-rule="evenodd" clip-rule="evenodd" d="M1849.68 297.124C1850.38 365.059 1884.61 433.282 1855.09 493.131C1819.5 565.294 1758.16 636.045 1681.63 637.817C1606.14 639.565 1558.83 557.143 1503.8 501.266C1452.59 449.262 1379.24 404.86 1378.16 329.674C1377.11 255.718 1451.08 213.907 1498.93 161.004C1542.59 112.734 1579 54.9075 1640.34 39.794C1711.99 22.1412 1802.21 14.5807 1850.8 74.3129C1898.4 132.831 1848.89 219.907 1849.68 297.124Z" stroke="url(#paint2_linear_91_152)"/>
<path fill-rule="evenodd" clip-rule="evenodd" d="M1297.9 1398.86C1241.62 1419.87 1197.72 1473.68 1136.79 1462.81C1063.32 1449.71 981.34 1411.09 951.052 1337C921.18 1263.93 971.972 1193.12 997.765 1122.75C1021.77 1057.25 1031.12 972.445 1093.29 948.888C1154.45 925.716 1217.1 985.324 1279.15 1016.14C1335.76 1044.25 1397.61 1062.44 1433.28 1117.72C1474.95 1182.29 1515.2 1267.99 1483.78 1333.24C1452.99 1397.17 1361.87 1374.97 1297.9 1398.86Z" stroke="url(#paint3_linear_91_152)" stroke-width="2"/>
<path fill-rule="evenodd" clip-rule="evenodd" d="M1283.53 1463.6C1217.98 1474.1 1157.64 1519.27 1094.97 1497.4C1019.39 1471.04 940.969 1417.9 926.727 1339.14C912.681 1261.46 984.598 1200.74 1029.6 1135.88C1071.47 1075.51 1102.38 993.395 1174.87 981.458C1246.18 969.716 1298.7 1040.07 1357.67 1081.86C1411.47 1119.98 1473.32 1149.25 1497.97 1210.41C1526.76 1281.84 1548.84 1373.89 1499.06 1432.67C1450.29 1490.24 1358.03 1451.66 1283.53 1463.6Z" stroke="url(#paint4_linear_91_152)" stroke-width="2"/>
<path fill-rule="evenodd" clip-rule="evenodd" d="M1389.68 1212.12C1390.38 1280.06 1424.61 1348.28 1395.09 1408.13C1359.49 1480.29 1298.16 1551.04 1221.62 1552.82C1146.14 1554.56 1098.83 1472.14 1043.8 1416.26C992.585 1364.26 919.24 1319.86 918.164 1244.67C917.106 1170.72 991.083 1128.91 1038.93 1076C1082.59 1027.73 1119 969.907 1180.34 954.793C1251.99 937.14 1342.2 929.58 1390.8 989.312C1438.4 1047.83 1388.89 1134.91 1389.68 1212.12Z" stroke="url(#paint5_linear_91_152)" stroke-width="2"/>
<path fill-rule="evenodd" clip-rule="evenodd" d="M-172.908 436.383C-189.004 407.327 -222.013 387.725 -221.055 353.52C-219.901 312.278 -205.49 264.292 -167.458 241.67C-129.948 219.36 -87.0781 241.34 -46.4864 249.686C-8.70825 257.454 38.4243 255.626 56.3914 287.697C74.0645 319.242 46.5965 358.376 34.8247 394.823C24.0836 428.078 19.197 463.38 -8.11278 487.408C-40.0112 515.474 -83.5729 544.495 -121.826 532.651C-159.301 521.047 -154.613 469.409 -172.908 436.383Z" stroke="url(#paint6_linear_91_152)" stroke-width="2"/>
<path fill-rule="evenodd" clip-rule="evenodd" d="M-209.483 433.818C-220.586 398.838 -250.22 369.542 -243.393 333.482C-235.161 290.003 -212.52 242.775 -170.618 228.545C-129.293 214.51 -90.2094 248.866 -51.064 268.165C-14.6318 286.126 32.7982 296.308 45.2552 334.969C57.5085 372.998 23.334 407.472 5.31121 443.131C-11.1334 475.667 -22.0766 511.88 -53.5008 530.362C-90.2049 551.948 -138.732 571.549 -174.939 549.139C-210.41 527.185 -196.862 473.579 -209.483 433.818Z" stroke="url(#paint7_linear_91_152)" stroke-width="2"/>
<path fill-rule="evenodd" clip-rule="evenodd" d="M-63.2979 471.292C-100.387 477.23 -134.89 501.53 -170.03 490.284C-212.399 476.723 -256.102 448.973 -263.332 407.27C-270.462 366.141 -229.265 333.527 -203.214 298.867C-178.968 266.61 -160.691 222.874 -119.668 216.135C-79.316 209.507 -50.4028 246.536 -17.5625 268.37C12.4022 288.293 46.9997 303.471 60.2816 335.777C75.7952 373.51 87.3089 422.219 58.6232 453.675C30.5208 484.491 -21.1414 464.542 -63.2979 471.292Z" stroke="url(#paint8_linear_91_152)" stroke-width="2"/>
</g>
<defs>
<linearGradient id="paint0_linear_91_152" x1="1751.93" y1="524.487" x2="1532.96" y2="42.9338" gradientUnits="userSpaceOnUse">
<stop offset="0.202744" stop-color="#D6006F"/>
<stop offset="0.536847" stop-color="#724E94"/>
<stop offset="0.819284" stop-color="#0038A7"/>
</linearGradient>
<linearGradient id="paint1_linear_91_152" x1="1727.12" y1="587.658" x2="1610.84" y2="71.6794" gradientUnits="userSpaceOnUse">
<stop offset="0.202744" stop-color="#D6006F"/>
<stop offset="0.536847" stop-color="#724E94"/>
<stop offset="0.819284" stop-color="#0038A7"/>
</linearGradient>
<linearGradient id="paint2_linear_91_152" x1="1884.34" y1="319.97" x2="1379.73" y2="354.805" gradientUnits="userSpaceOnUse">
<stop offset="0.202744" stop-color="#D6006F"/>
<stop offset="0.536458" stop-color="#705092"/>
<stop offset="0.819284" stop-color="#0038A7"/>
</linearGradient>
<linearGradient id="paint3_linear_91_152" x1="1291.93" y1="1439.49" x2="1072.96" y2="957.934" gradientUnits="userSpaceOnUse">
<stop offset="0.202744" stop-color="#D6006F"/>
<stop offset="0.536847" stop-color="#724E94"/>
<stop offset="0.819284" stop-color="#0038A7"/>
</linearGradient>
<linearGradient id="paint4_linear_91_152" x1="1267.12" y1="1502.67" x2="1150.84" y2="986.689" gradientUnits="userSpaceOnUse">
<stop offset="0.202744" stop-color="#D6006F"/>
<stop offset="0.536847" stop-color="#724E94"/>
<stop offset="0.819284" stop-color="#0038A7"/>
</linearGradient>
<linearGradient id="paint5_linear_91_152" x1="1424.34" y1="1234.97" x2="919.726" y2="1269.8" gradientUnits="userSpaceOnUse">
<stop offset="0.202744" stop-color="#D6006F"/>
<stop offset="0.536458" stop-color="#705092"/>
<stop offset="0.819284" stop-color="#0038A7"/>
</linearGradient>
<linearGradient id="paint6_linear_91_152" x1="-195.612" y1="436.443" x2="49.7819" y2="277.32" gradientUnits="userSpaceOnUse">
<stop offset="0.202744" stop-color="#D6006F"/>
<stop offset="0.536847" stop-color="#724E94"/>
<stop offset="0.819284" stop-color="#0038A7"/>
</linearGradient>
<linearGradient id="paint7_linear_91_152" x1="-232.189" y1="428.043" x2="40.4288" y2="322.256" gradientUnits="userSpaceOnUse">
<stop offset="0.202744" stop-color="#D6006F"/>
<stop offset="0.536847" stop-color="#724E94"/>
<stop offset="0.819284" stop-color="#0038A7"/>
</linearGradient>
<linearGradient id="paint8_linear_91_152" x1="-72.9548" y1="492.111" x2="-133.281" y2="219.045" gradientUnits="userSpaceOnUse">
<stop offset="0.202744" stop-color="#D6006F"/>
<stop offset="0.536458" stop-color="#705092"/>
<stop offset="0.819284" stop-color="#0038A7"/>
</linearGradient>
<clipPath id="clip0_91_152">
<rect width="1440" height="1024" fill="white"/>
</clipPath>
</defs>
</svg>
