<svg width="1440" height="1024" viewBox="0 0 1440 1024" fill="none" xmlns="http://www.w3.org/2000/svg">
<g clip-path="url(#clip0_91_97)">
<rect width="1440" height="1024" fill="white"/>
<path fill-rule="evenodd" clip-rule="evenodd" d="M-276.66 -16.9626C-249.665 -56.9386 -235.788 -117.026 -188.936 -128.342C-140.665 -140 -101.827 -87.0776 -55.064 -70.4826C-19.6957 -57.9313 25.2912 -69.5363 51.7554 -42.9271C78.0932 -16.445 59.8482 31.2022 78.3474 63.6601C106.158 112.455 189.342 134.011 184.522 190.019C180.1 241.407 99.6053 243.468 60.0272 276.559C21.0909 309.113 4.53673 372.9 -45.3215 382.188C-95.0277 391.447 -136.647 345.94 -180.824 321.426C-221.654 298.769 -265.32 280.781 -294.201 244.08C-324.995 204.95 -351.987 157.905 -348.645 108.17C-345.354 59.1842 -304.146 23.7413 -276.66 -16.9626Z" stroke="url(#paint0_linear_91_97)" stroke-width="2"/>
<path fill-rule="evenodd" clip-rule="evenodd" d="M50.0938 5.49193C81.972 41.6937 136.619 70.2724 135.757 118.464C134.868 168.115 73.8625 192.355 46.0131 233.423C24.9498 264.484 24.8372 310.943 -7.58478 329.844C-39.852 348.653 -81.3596 318.984 -117.433 328.702C-171.663 343.311 -213.496 418.373 -266.48 399.587C-315.093 382.352 -296.792 303.938 -318.835 257.295C-340.52 211.409 -398.072 179.307 -394.489 128.718C-390.917 78.2826 -336.386 49.4814 -301.526 12.9129C-269.306 -20.8854 -240.89 -58.6051 -198.093 -77.3003C-152.463 -97.2328 -100.131 -111.492 -52.8459 -95.7177C-6.27291 -80.1815 17.6351 -31.3691 50.0938 5.49193Z" stroke="url(#paint1_linear_91_97)" stroke-width="2"/>
<path fill-rule="evenodd" clip-rule="evenodd" d="M104.387 319.821C83.6975 363.396 78.9958 424.886 34.3721 443.105C-11.6023 461.876 -57.9427 415.381 -106.667 405.993C-143.518 398.892 -186.254 417.117 -216.412 394.781C-246.426 372.552 -235.539 322.706 -258.7 293.392C-293.518 249.324 -378.995 240.497 -382.636 184.399C-385.977 132.93 -306.703 118.811 -272.539 80.1552C-238.93 42.1264 -232.137 -23.4225 -184.237 -40.088C-136.484 -56.7027 -88.5055 -17.9576 -41.1501 -0.351166C2.61787 15.9215 48.4885 27.1517 82.5514 59.1024C118.869 93.1679 152.616 135.629 156.776 185.303C160.874 234.227 125.453 275.453 104.387 319.821Z" stroke="url(#paint2_linear_91_97)" stroke-width="2"/>
<path fill-rule="evenodd" clip-rule="evenodd" d="M660.535 1093.95C638.875 1079.64 606.462 1072.49 600.12 1047.34C593.587 1021.42 621.861 1000.23 630.542 974.978C637.107 955.876 630.62 931.726 644.799 917.341C658.91 903.024 684.651 912.588 702.021 902.457C728.133 887.228 739.288 842.343 769.457 844.637C797.137 846.741 798.679 890.052 816.7 911.175C834.429 931.956 868.848 940.523 874.114 967.306C879.364 994.008 855.096 1016.65 842.139 1040.56C830.164 1062.65 820.718 1086.25 801.12 1101.99C780.226 1118.78 755.051 1133.56 728.266 1132.02C701.885 1130.51 682.589 1108.53 660.535 1093.95Z" stroke="url(#paint3_linear_91_97)" stroke-width="2"/>
<path fill-rule="evenodd" clip-rule="evenodd" d="M670.866 917.975C690.179 900.624 705.266 871.06 731.208 871.266C757.934 871.478 771.307 904.18 793.559 918.948C810.389 930.118 835.394 929.929 845.74 947.277C856.036 964.542 840.291 987.041 845.715 1006.4C853.868 1035.51 894.49 1057.62 884.664 1086.24C875.649 1112.49 833.349 1103.07 808.364 1115.18C783.785 1127.1 766.816 1158.24 739.57 1156.59C712.407 1154.93 696.614 1125.74 676.746 1107.17C658.383 1090.02 637.931 1074.92 627.639 1051.99C616.667 1027.54 608.712 999.453 616.948 973.919C625.06 948.771 651.202 935.642 670.866 917.975Z" stroke="url(#paint4_linear_91_97)" stroke-width="2"/>
<path fill-rule="evenodd" clip-rule="evenodd" d="M839.745 887.069C863.308 897.97 896.427 900.171 906.472 924.089C916.821 948.731 892.046 973.921 887.255 1000.19C883.631 1020.07 893.669 1042.97 881.809 1059.32C870.007 1075.59 843.122 1070 827.469 1082.62C803.939 1101.6 799.647 1147.65 769.475 1149.91C741.792 1151.98 733.768 1109.39 712.781 1091.21C692.134 1073.33 656.819 1070.03 647.593 1044.34C638.395 1018.72 658.99 992.694 668.211 967.114C676.735 943.471 682.532 918.723 699.545 900.219C717.684 880.491 740.356 862.1 767.067 859.595C793.376 857.127 815.754 875.969 839.745 887.069Z" stroke="url(#paint5_linear_91_97)" stroke-width="2"/>
<path fill-rule="evenodd" clip-rule="evenodd" d="M1385.54 306.953C1363.88 292.639 1331.46 285.493 1325.12 260.337C1318.59 234.421 1346.86 213.235 1355.54 187.978C1362.11 168.876 1355.62 144.726 1369.8 130.341C1383.91 116.024 1409.65 125.588 1427.02 115.457C1453.13 100.228 1464.29 55.3435 1494.46 57.6369C1522.14 59.7411 1523.68 103.052 1541.7 124.175C1559.43 144.956 1593.85 153.523 1599.11 180.306C1604.36 207.008 1580.1 229.652 1567.14 253.559C1555.17 275.655 1545.72 299.252 1526.12 314.993C1505.23 331.776 1480.05 346.555 1453.27 345.023C1426.89 343.515 1407.59 321.527 1385.54 306.953Z" stroke="url(#paint6_linear_91_97)" stroke-width="2"/>
<path fill-rule="evenodd" clip-rule="evenodd" d="M1395.87 130.975C1415.18 113.624 1430.27 84.0599 1456.21 84.2658C1482.94 84.4778 1496.31 117.18 1518.56 131.948C1535.39 143.118 1560.39 142.929 1570.74 160.277C1581.04 177.542 1565.29 200.041 1570.72 219.403C1578.87 248.511 1619.49 270.623 1609.67 299.239C1600.65 325.494 1558.35 316.066 1533.37 328.179C1508.79 340.096 1491.82 371.243 1464.57 369.586C1437.41 367.934 1421.62 338.74 1401.75 320.175C1383.38 303.015 1362.93 287.925 1352.64 264.992C1341.67 240.541 1333.71 212.453 1341.95 186.919C1350.06 161.771 1376.2 148.642 1395.87 130.975Z" stroke="url(#paint7_linear_91_97)" stroke-width="2"/>
<path fill-rule="evenodd" clip-rule="evenodd" d="M1564.75 100.069C1588.31 110.97 1621.43 113.171 1631.47 137.089C1641.82 161.731 1617.05 186.921 1612.26 213.194C1608.63 233.066 1618.67 255.968 1606.81 272.319C1595.01 288.591 1568.12 282.999 1552.47 295.622C1528.94 314.597 1524.65 360.648 1494.48 362.908C1466.79 364.982 1458.77 322.393 1437.78 304.214C1417.13 286.33 1381.82 283.025 1372.59 257.335C1363.4 231.724 1383.99 205.694 1393.21 180.114C1401.74 156.471 1407.53 131.723 1424.55 113.219C1442.69 93.4906 1465.36 75.1001 1492.07 72.5947C1518.38 70.127 1540.75 88.9694 1564.75 100.069Z" stroke="url(#paint8_linear_91_97)" stroke-width="2"/>
<path d="M837.621 31.775C837.371 31.7917 837.171 31.75 837.021 31.65C836.854 31.55 836.746 31.4167 836.696 31.25C836.629 31.1 836.613 30.9417 836.646 30.775C836.663 30.625 836.729 30.4917 836.846 30.375C836.963 30.2583 837.121 30.2 837.321 30.2C838.238 30.15 838.913 29.9 839.346 29.45C839.796 29.0167 840.021 28.325 840.021 27.375V15.7C840.021 15.3667 840.104 15.1167 840.271 14.95C840.454 14.7667 840.713 14.675 841.046 14.675C841.363 14.675 841.604 14.7667 841.771 14.95C841.954 15.1167 842.046 15.3667 842.046 15.7V27.225C842.046 28.2417 841.871 29.075 841.521 29.725C841.188 30.3917 840.696 30.8833 840.046 31.2C839.396 31.5333 838.588 31.725 837.621 31.775ZM841.021 11.925C840.604 11.925 840.279 11.8167 840.046 11.6C839.813 11.3667 839.696 11.0583 839.696 10.675C839.696 10.275 839.813 9.975 840.046 9.775C840.279 9.55833 840.604 9.45 841.021 9.45C841.454 9.45 841.788 9.55833 842.021 9.775C842.254 9.975 842.371 10.275 842.371 10.675C842.371 11.0583 842.254 11.3667 842.021 11.6C841.788 11.8167 841.454 11.925 841.021 11.925Z" fill="white"/>
</g>
<defs>
<linearGradient id="paint0_linear_91_97" x1="-291.059" y1="-5.86795" x2="136.646" y2="273.158" gradientUnits="userSpaceOnUse">
<stop stop-color="#FDF435"/>
<stop offset="0.317708" stop-color="#FCFCFC"/>
<stop offset="0.677083" stop-color="#9C5CD4"/>
<stop offset="1" stop-color="#2C2C2C"/>
</linearGradient>
<linearGradient id="paint1_linear_91_97" x1="42.9881" y1="-11.2391" x2="-334.862" y2="332.296" gradientUnits="userSpaceOnUse">
<stop stop-color="#FDF435"/>
<stop offset="0.317708" stop-color="#FCFCFC"/>
<stop offset="0.677083" stop-color="#9C5CD4"/>
<stop offset="1" stop-color="#2C2C2C"/>
</linearGradient>
<linearGradient id="paint2_linear_91_97" x1="116.957" y1="306.691" x2="-347.78" y2="95.0164" gradientUnits="userSpaceOnUse">
<stop stop-color="#FDF435"/>
<stop offset="0.317708" stop-color="#FCFCFC"/>
<stop offset="0.677083" stop-color="#9C5CD4"/>
<stop offset="1" stop-color="#2C2C2C"/>
</linearGradient>
<linearGradient id="paint3_linear_91_97" x1="666.583" y1="1101.64" x2="814.459" y2="869.957" gradientUnits="userSpaceOnUse">
<stop stop-color="#FDF435"/>
<stop offset="0.317708" stop-color="#FCFCFC"/>
<stop offset="0.677083" stop-color="#9C5CD4"/>
<stop offset="1" stop-color="#2C2C2C"/>
</linearGradient>
<linearGradient id="paint4_linear_91_97" x1="661.9" y1="921.889" x2="848.815" y2="1123.4" gradientUnits="userSpaceOnUse">
<stop stop-color="#FDF435"/>
<stop offset="0.317708" stop-color="#FCFCFC"/>
<stop offset="0.677083" stop-color="#9C5CD4"/>
<stop offset="1" stop-color="#2C2C2C"/>
</linearGradient>
<linearGradient id="paint5_linear_91_97" x1="832.612" y1="880.374" x2="721.183" y2="1131.63" gradientUnits="userSpaceOnUse">
<stop stop-color="#FDF435"/>
<stop offset="0.317708" stop-color="#FCFCFC"/>
<stop offset="0.677083" stop-color="#9C5CD4"/>
<stop offset="1" stop-color="#2C2C2C"/>
</linearGradient>
<linearGradient id="paint6_linear_91_97" x1="1391.58" y1="314.642" x2="1539.46" y2="82.9574" gradientUnits="userSpaceOnUse">
<stop stop-color="#FDF435"/>
<stop offset="0.317708" stop-color="#FCFCFC"/>
<stop offset="0.677083" stop-color="#9C5CD4"/>
<stop offset="1" stop-color="#2C2C2C"/>
</linearGradient>
<linearGradient id="paint7_linear_91_97" x1="1386.9" y1="134.889" x2="1573.82" y2="336.403" gradientUnits="userSpaceOnUse">
<stop stop-color="#FDF435"/>
<stop offset="0.317708" stop-color="#FCFCFC"/>
<stop offset="0.677083" stop-color="#9C5CD4"/>
<stop offset="1" stop-color="#2C2C2C"/>
</linearGradient>
<linearGradient id="paint8_linear_91_97" x1="1557.61" y1="93.3739" x2="1446.18" y2="344.628" gradientUnits="userSpaceOnUse">
<stop stop-color="#FDF435"/>
<stop offset="0.317708" stop-color="#FCFCFC"/>
<stop offset="0.677083" stop-color="#9C5CD4"/>
<stop offset="1" stop-color="#2C2C2C"/>
</linearGradient>
<clipPath id="clip0_91_97">
<rect width="1440" height="1024" fill="white"/>
</clipPath>
</defs>
</svg>
