<svg width="368" height="117" viewBox="0 0 368 117" fill="none" xmlns="http://www.w3.org/2000/svg">
<path d="M26.25 0.499996C30.03 0.499996 33.95 1.2 37.38 2.74C40.74 4.35 45.08 7.57 45.08 11.63C45.08 14.78 42.91 17.16 38.99 17.09C42 8.62 35 1.62 26.25 1.62C14.98 1.62 5.81 12.89 5.81 26.75C5.81 36.41 10.29 44.81 16.73 49.01C26.67 55.45 38.57 50.2 45.08 41.31V47.19C40.32 50.97 33.6 53 26.25 53C11.83 53 0 41.31 0 26.75C0 12.26 11.76 0.499996 26.25 0.499996ZM66.2889 18C75.5289 18 83.0189 25.84 83.0189 35.5C83.0189 45.16 75.5289 53 66.2889 53C57.1189 53 49.6289 45.16 49.6289 35.5C49.6289 25.84 57.1189 18 66.2889 18ZM66.2889 19.12C60.3389 19.12 55.4389 26.47 55.4389 35.5C55.4389 44.6 60.3389 51.95 66.2889 51.95C72.3089 51.95 77.2089 44.6 77.2089 35.5C77.2089 26.47 72.3089 19.12 66.2889 19.12ZM89.2773 18H95.0873V21.01C99.4273 19.26 105.517 18 110.767 18C116.087 18 121.337 19.19 121.337 25.77V53H115.527V25.77C115.527 21.5 113.217 19.75 110.347 19.33C105.797 18.7 99.0073 21.08 95.0873 23.95V53H89.2773V18ZM128.242 0.499996H134.052V21.01C138.392 19.26 144.482 18 149.732 18C155.052 18 160.302 19.19 160.302 25.77V53H154.492V25.77C154.492 21.5 152.182 19.75 149.312 19.33C144.762 18.7 137.972 21.08 134.052 23.95V53H128.242V0.499996ZM173.662 27.59C177.302 31.09 182.972 33.96 188.082 32.63C195.502 30.74 194.102 19.12 185.212 19.12C179.822 19.12 175.622 22.83 173.662 27.59ZM187.102 35.08C182.062 34.59 176.812 32 173.242 28.71C170.162 38.09 174.922 50.62 186.052 50.83C190.742 50.9 195.852 48.8 198.232 44.53L198.862 44.95C195.712 50.69 190.112 53 184.512 53C175.622 53 166.592 46.42 166.592 35.5C166.592 25.42 174.642 18 184.512 18C194.312 18 198.792 22.83 198.792 27.31C198.862 31.72 194.662 35.85 187.102 35.08ZM230.738 19.75C233.048 20.8 235.708 22.97 235.708 25.35C235.708 27.87 233.818 29.69 229.828 29.34C232.208 23.74 227.518 19.05 222.058 19.05C216.248 19.05 211.838 23.39 210.088 28.71C207.008 38.09 211.768 50.62 222.898 50.83C227.658 50.9 232.768 48.8 235.078 44.53L235.708 44.95C232.698 50.62 227.238 52.93 221.778 53C221.358 56.64 227.098 56.5 226.958 60.07C226.888 61.26 226.048 62.31 224.788 62.8C223.808 63.22 222.618 63.29 221.638 63.29C220.728 63.29 219.748 63.15 218.908 62.8C218.138 62.38 217.158 61.68 217.018 60.77C216.808 59.51 217.858 58.74 219.118 58.81C218.278 60.98 220.028 62.8 222.128 62.73C224.788 62.66 225.278 59.86 223.808 58.18C222.548 56.71 220.168 56.08 221.078 53C212.258 52.86 203.438 46.28 203.438 35.5C203.438 25.42 211.488 18 221.358 18C224.648 18 228.218 18.63 230.738 19.75ZM273.3 29.69V53H267.49V41.24C264.97 47.61 259.58 53 252.3 53C245.65 53 241.24 48.8 241.24 42.08C241.24 36.06 245.93 31.44 251.88 31.44C256.78 31.44 259.37 33.96 263.43 34.38C267.07 34.8 267.49 32.56 267.49 29.69C267.49 23.11 264.41 19.26 257.48 19.12C253.56 19.05 248.38 20.59 246.91 24.65C246.35 26.05 246.35 27.66 247.05 29.34C243.13 29.69 241.24 27.87 241.24 25.42C241.24 22.97 243.76 20.94 246.14 19.89C248.94 18.7 253.28 18 257.69 18C266.16 18.07 273.3 20.17 273.3 29.69ZM267.49 34.31C266.23 35.57 264.06 35.64 262.45 35.36C259.65 34.87 256.85 33.82 253.98 34.03C249.36 34.45 247.12 38.37 247.05 42.15C246.91 48.73 252.37 51.81 258.04 49.85C264.34 47.61 267.14 40.47 267.49 34.31Z" fill="black"/>
<path d="M107.06 75.69V99H101.25V87.24C98.73 93.61 93.34 99 86.06 99C79.41 99 75 94.8 75 88.08C75 82.06 79.69 77.44 85.64 77.44C90.54 77.44 93.13 79.96 97.19 80.38C100.83 80.8 101.25 78.56 101.25 75.69C101.25 69.11 98.17 65.26 91.24 65.12C87.32 65.05 82.14 66.59 80.67 70.65C80.11 72.05 80.11 73.66 80.81 75.34C76.89 75.69 75 73.87 75 71.42C75 68.97 77.52 66.94 79.9 65.89C82.7 64.7 87.04 64 91.45 64C99.92 64.07 107.06 66.17 107.06 75.69ZM101.25 80.31C99.99 81.57 97.82 81.64 96.21 81.36C93.41 80.87 90.61 79.82 87.74 80.03C83.12 80.45 80.88 84.37 80.81 88.15C80.67 94.73 86.13 97.81 91.8 95.85C98.1 93.61 100.9 86.47 101.25 80.31ZM138.261 73.59C141.901 77.09 147.571 79.96 152.681 78.63C160.101 76.74 158.701 65.12 149.811 65.12C144.421 65.12 140.221 68.83 138.261 73.59ZM151.701 81.08C146.661 80.59 141.411 78 137.841 74.71C134.761 84.09 139.521 96.62 150.651 96.83C155.341 96.9 160.451 94.8 162.831 90.53L163.461 90.95C160.311 96.69 154.711 99 149.111 99C140.221 99 131.191 92.42 131.191 81.5C131.191 71.42 139.241 64 149.111 64C158.911 64 163.391 68.83 163.391 73.31C163.461 77.72 159.261 81.85 151.701 81.08ZM194.766 64H200.576V116.43H194.766V93.96C191.826 96.97 187.836 98.93 183.566 98.93C173.766 98.93 168.516 91.02 168.516 81.99C168.516 72.89 174.606 64 184.476 64C188.746 64 192.106 65.47 194.766 68.48V64ZM194.766 90.67V72.47C193.226 68.97 190.426 65.4 186.226 65.12C177.756 64.56 174.326 74.36 174.326 81.99C174.326 88.15 177.336 97.74 185.456 97.53C189.656 97.46 192.806 94.24 194.766 90.67ZM239.746 99H233.936V95.99C229.596 97.74 223.506 99 218.256 99C212.936 99 207.686 97.88 207.686 91.23V64H213.496V91.23C213.496 95.5 215.806 97.25 218.676 97.67C223.226 98.37 230.016 95.92 233.936 93.05V64H239.746V99ZM246.65 64H252.46V99H246.65V64ZM249.59 56.65C251.2 56.65 252.46 57.91 252.46 59.52C252.46 61.13 251.2 62.46 249.59 62.46C247.98 62.46 246.65 61.13 246.65 59.52C246.65 57.91 247.98 56.65 249.59 56.65ZM259.365 64H265.175V70.58C268.675 66.87 273.295 64 278.545 64C287.155 64 291.425 71 291.425 78.98C291.425 91.09 285.545 99 272.945 99H265.175V116.5H259.365V64ZM265.175 73.87V97.18C266.855 97.67 269.025 97.81 271.195 97.81C282.045 97.81 285.615 88.85 285.615 78.98C285.615 70.58 281.275 62.18 271.965 66.73C269.095 68.13 266.715 71.07 265.175 73.87ZM303.896 73.59C307.536 77.09 313.206 79.96 318.316 78.63C325.736 76.74 324.336 65.12 315.446 65.12C310.056 65.12 305.856 68.83 303.896 73.59ZM317.336 81.08C312.296 80.59 307.046 78 303.476 74.71C300.396 84.09 305.156 96.62 316.286 96.83C320.976 96.9 326.086 94.8 328.466 90.53L329.096 90.95C325.946 96.69 320.346 99 314.746 99C305.856 99 296.826 92.42 296.826 81.5C296.826 71.42 304.876 64 314.746 64C324.546 64 329.026 68.83 329.026 73.31C329.096 77.72 324.896 81.85 317.336 81.08Z" fill="black"/>
</svg>
