<svg width="522" height="91" viewBox="0 0 522 91" fill="none" xmlns="http://www.w3.org/2000/svg">
<path d="M0 0.499995H24.03C42.21 0.499995 53.46 15.62 53.46 34.25C53.46 52.88 42.21 68 24.03 68H0V0.499995ZM7.47 1.94V66.65H18.54C36.63 66.65 45.99 50.99 45.99 34.25C45.99 17.51 36.63 1.94 18.54 1.94H7.47ZM102.656 38.03V68H95.1855V52.88C91.9455 61.07 85.0155 68 75.6555 68C67.1055 68 61.4355 62.6 61.4355 53.96C61.4355 46.22 67.4655 40.28 75.1155 40.28C81.4155 40.28 84.7455 43.52 89.9655 44.06C94.6455 44.6 95.1855 41.72 95.1855 38.03C95.1855 29.57 91.2255 24.62 82.3155 24.44C77.2755 24.35 70.6155 26.33 68.7255 31.55C68.0055 33.35 68.0055 35.42 68.9055 37.58C63.8655 38.03 61.4355 35.69 61.4355 32.54C61.4355 29.39 64.6755 26.78 67.7355 25.43C71.3355 23.9 76.9155 23 82.5855 23C93.4755 23.09 102.656 25.79 102.656 38.03ZM95.1855 43.97C93.5655 45.59 90.7755 45.68 88.7055 45.32C85.1055 44.69 81.5055 43.34 77.8155 43.61C71.8755 44.15 68.9955 49.19 68.9055 54.05C68.7255 62.51 75.7455 66.47 83.0355 63.95C91.1355 61.07 94.7355 51.89 95.1855 43.97ZM111.709 23H119.179V26.87C124.759 24.62 132.589 23 139.339 23C146.179 23 152.929 24.53 152.929 32.99V68H145.459V32.99C145.459 27.5 142.489 25.25 138.799 24.71C132.949 23.9 124.219 26.96 119.179 30.65V68H111.709V23ZM161.807 23H169.277V68H161.807V23ZM165.587 13.55C167.657 13.55 169.277 15.17 169.277 17.24C169.277 19.31 167.657 21.02 165.587 21.02C163.517 21.02 161.807 19.31 161.807 17.24C161.807 15.17 163.517 13.55 165.587 13.55ZM186.541 35.33C191.221 39.83 198.511 43.52 205.081 41.81C214.621 39.38 212.821 24.44 201.391 24.44C194.461 24.44 189.061 29.21 186.541 35.33ZM203.821 44.96C197.341 44.33 190.591 41 186.001 36.77C182.041 48.83 188.161 64.94 202.471 65.21C208.501 65.3 215.071 62.6 218.131 57.11L218.941 57.65C214.891 65.03 207.691 68 200.491 68C189.061 68 177.451 59.54 177.451 45.5C177.451 32.54 187.801 23 200.491 23C213.091 23 218.851 29.21 218.851 34.97C218.941 40.64 213.541 45.95 203.821 44.96ZM226.846 68V0.499995H234.316V68H226.846ZM243.369 68V0.499995H250.839V68H243.369ZM291.741 23H299.211C291.471 39.92 283.641 56.93 275.991 73.85C272.931 80.51 268.431 90.5 259.881 90.41C256.461 90.41 253.761 88.61 251.781 85.91L255.741 79.97C260.151 87.8 268.431 85.91 272.481 77.99C274.191 74.75 275.631 71.24 277.161 67.91L256.641 23H264.921L281.301 58.91C286.701 46.94 289.491 34.97 291.741 23ZM329.854 68V0.499995H337.324V66.65C356.854 66.56 365.944 63.14 378.004 60.53V68H329.854ZM386.543 23H394.013V68H386.543V23ZM390.323 13.55C392.393 13.55 394.013 15.17 394.013 17.24C394.013 19.31 392.393 21.02 390.323 21.02C388.253 21.02 386.543 19.31 386.543 17.24C386.543 15.17 388.253 13.55 390.323 13.55ZM402.891 23H410.361V26.87C415.491 24.62 421.071 23 427.731 23C432.681 23 437.631 23.81 439.971 27.41C445.461 24.98 451.401 23 458.781 23C465.621 23 472.371 24.53 472.371 32.99V68H464.811V32.99C464.811 27.5 461.841 25.25 458.151 24.71C452.301 23.9 445.821 27.05 441.231 30.74C441.321 31.46 441.321 32.18 441.321 32.99V68H433.851V32.99C433.851 27.5 430.881 25.25 427.191 24.71C421.431 23.9 415.041 26.96 410.361 30.65V68H402.891V23ZM521.542 38.03V68H514.072V52.88C510.832 61.07 503.902 68 494.542 68C485.992 68 480.322 62.6 480.322 53.96C480.322 46.22 486.352 40.28 494.002 40.28C500.302 40.28 503.632 43.52 508.852 44.06C513.532 44.6 514.072 41.72 514.072 38.03C514.072 29.57 510.112 24.62 501.202 24.44C496.162 24.35 489.502 26.33 487.612 31.55C486.892 33.35 486.892 35.42 487.792 37.58C482.752 38.03 480.322 35.69 480.322 32.54C480.322 29.39 483.562 26.78 486.622 25.43C490.222 23.9 495.802 23 501.472 23C512.362 23.09 521.542 25.79 521.542 38.03ZM514.072 43.97C512.452 45.59 509.662 45.68 507.592 45.32C503.992 44.69 500.392 43.34 496.702 43.61C490.762 44.15 487.882 49.19 487.792 54.05C487.612 62.51 494.632 66.47 501.922 63.95C510.022 61.07 513.622 51.89 514.072 43.97Z" fill="url(#paint0_angular_91_208)"/>
<defs>
<radialGradient id="paint0_angular_91_208" cx="0" cy="0" r="1" gradientUnits="userSpaceOnUse" gradientTransform="translate(296 36) rotate(90) scale(85 415.868)">
<stop offset="0.307292" stop-color="#FF8C00"/>
<stop offset="0.479167" stop-color="#FFED00"/>
<stop offset="0.651042" stop-color="#008026"/>
<stop offset="0.802083" stop-color="#004DFF"/>
<stop offset="1" stop-color="#750787"/>
</radialGradient>
</defs>
</svg>
