<svg width="450" height="69" viewBox="0 0 450 69" fill="none" xmlns="http://www.w3.org/2000/svg">
<path d="M0 0.499995H24.03C42.21 0.499995 53.46 15.62 53.46 34.25C53.46 52.88 42.21 68 24.03 68H0V0.499995ZM7.47 1.94V66.65H18.54C36.63 66.65 45.99 50.99 45.99 34.25C45.99 17.51 36.63 1.94 18.54 1.94H7.47ZM102.656 38.03V68H95.1855V52.88C91.9455 61.07 85.0155 68 75.6555 68C67.1055 68 61.4355 62.6 61.4355 53.96C61.4355 46.22 67.4655 40.28 75.1155 40.28C81.4155 40.28 84.7455 43.52 89.9655 44.06C94.6455 44.6 95.1855 41.72 95.1855 38.03C95.1855 29.57 91.2255 24.62 82.3155 24.44C77.2755 24.35 70.6155 26.33 68.7255 31.55C68.0055 33.35 68.0055 35.42 68.9055 37.58C63.8655 38.03 61.4355 35.69 61.4355 32.54C61.4355 29.39 64.6755 26.78 67.7355 25.43C71.3355 23.9 76.9155 23 82.5855 23C93.4755 23.09 102.656 25.79 102.656 38.03ZM95.1855 43.97C93.5655 45.59 90.7755 45.68 88.7055 45.32C85.1055 44.69 81.5055 43.34 77.8155 43.61C71.8755 44.15 68.9955 49.19 68.9055 54.05C68.7255 62.51 75.7455 66.47 83.0355 63.95C91.1355 61.07 94.7355 51.89 95.1855 43.97ZM142.327 23H149.797L129.277 68H127.747L107.227 23H115.507L131.887 59C137.287 47.03 140.077 34.97 142.327 23ZM156.094 23H163.564V68H156.094V23ZM159.874 13.55C161.944 13.55 163.564 15.17 163.564 17.24C163.564 19.31 161.944 21.02 159.874 21.02C157.804 21.02 156.094 19.31 156.094 17.24C156.094 15.17 157.804 13.55 159.874 13.55ZM204.258 0.499995H211.728V68H204.258V61.52C200.478 65.39 195.348 68 189.858 68C177.258 68 170.508 57.83 170.508 46.13C170.508 34.43 178.338 23 191.028 23C196.518 23 200.838 24.98 204.258 28.85V0.499995ZM204.258 57.38V33.89C202.278 29.39 198.678 24.89 193.278 24.53C182.388 23.72 177.978 36.41 177.978 46.13C177.978 54.14 181.848 66.47 192.288 66.2C197.688 66.02 201.738 61.88 204.258 57.38ZM272.458 0.499995L302.698 68H294.508L283.348 43.25C283.348 55.85 275.338 68 260.668 68C248.788 68 241.498 59.63 242.758 48.29C243.658 40.01 248.788 32.36 253.288 25.61C258.778 17.42 262.918 10.67 264.178 0.499995H272.458ZM281.278 38.66L265.258 2.93C263.908 10.4 260.758 16.88 256.978 23.54C252.928 30.74 247.528 39.65 248.428 48.2C249.328 57.11 256.348 63.41 266.788 61.52C275.698 59.99 285.148 47.21 281.278 38.66ZM308.496 23H315.966V68H308.496V23ZM312.276 13.55C314.346 13.55 315.966 15.17 315.966 17.24C315.966 19.31 314.346 21.02 312.276 21.02C310.206 21.02 308.496 19.31 308.496 17.24C308.496 15.17 310.206 13.55 312.276 13.55ZM324.844 23H332.314V26.87C340.054 23.27 351.754 23 358.594 23V30.56C353.194 28.67 339.964 24.44 332.314 28.58V68H324.844V23ZM369.266 35.33C373.946 39.83 381.236 43.52 387.806 41.81C397.346 39.38 395.546 24.44 384.116 24.44C377.186 24.44 371.786 29.21 369.266 35.33ZM386.546 44.96C380.066 44.33 373.316 41 368.726 36.77C364.766 48.83 370.886 64.94 385.196 65.21C391.226 65.3 397.796 62.6 400.856 57.11L401.666 57.65C397.616 65.03 390.416 68 383.216 68C371.786 68 360.176 59.54 360.176 45.5C360.176 32.54 370.526 23 383.216 23C395.816 23 401.576 29.21 401.576 34.97C401.666 40.64 396.266 45.95 386.546 44.96ZM408.237 58.1C408.417 53.96 412.377 52.25 415.977 53.42C414.807 55.67 414.807 57.83 415.527 59.63C417.867 65.03 426.147 66.74 431.277 66.47C443.247 65.93 448.107 54.59 436.497 50.09C429.297 47.3 418.317 48.02 412.197 42.44C406.977 37.67 408.057 30.02 414.087 26.42C418.317 23.81 424.527 23 429.837 23C433.617 23 438.657 23.81 442.527 25.43C445.497 26.78 448.737 29.39 448.737 32.54C448.737 35.69 446.307 38.03 441.267 37.58C443.517 32.18 440.277 27.41 434.247 25.43C429.027 23.72 422.367 24.17 418.227 26.51C413.907 28.94 412.827 34.34 416.967 37.22C422.637 41.18 434.517 40.46 441.897 43.97C446.307 46.04 449.457 49.37 449.457 54.68C449.457 64.94 437.667 67.91 427.677 68C422.007 68.09 407.877 65.93 408.237 58.1Z" fill="url(#paint0_angular_98_34)"/>
<defs>
<radialGradient id="paint0_angular_98_34" cx="0" cy="0" r="1" gradientUnits="userSpaceOnUse" gradientTransform="translate(296 60.5) rotate(90) scale(60.5 296)">
<stop offset="0.0625" stop-color="#FDF435"/>
<stop offset="0.489583" stop-color="#9C5CD4"/>
<stop offset="1" stop-color="#2C2C2C"/>
</radialGradient>
</defs>
</svg>
