<svg width="47" height="46" viewBox="0 0 47 46" fill="none" xmlns="http://www.w3.org/2000/svg">
<path id="Vector" d="M23.528 0.627777C23.472 4.09579 22.9399 10.2643 22.4917 12.3963C22.0156 14.8409 21.0354 17.3709 20.5593 17.3709C19.8871 17.3709 16.3022 14.7841 12.8013 11.7425C11.8771 10.9465 12.2972 11.6003 14.1457 13.846C16.1342 16.2907 18.1787 19.3039 18.1787 19.8156C18.1787 20.2704 15.658 21.2653 13.2494 21.777C10.7568 22.2886 5.65953 22.7719 2.38271 22.7719C1.01037 22.7719 -0.053898 22.8287 0.00211319 22.8856C0.0581272 22.9709 2.43872 23.1699 5.29544 23.3404C8.15216 23.511 11.625 23.8805 13.0254 24.1648C15.8261 24.7617 18.1787 25.6714 18.1787 26.2115C18.1787 26.7516 15.8541 30.1343 13.8656 32.4937C12.8293 33.716 12.0451 34.711 12.1292 34.711C12.1852 34.711 13.1654 33.915 14.3137 32.9769C16.3022 31.2714 18.7948 29.4521 20.0831 28.7698C20.6713 28.4572 20.7553 28.514 21.3995 29.9353C21.7636 30.7597 22.2397 32.4084 22.4917 33.5739C22.9399 35.8764 23.472 41.9881 23.528 45.4845C23.556 46.8206 23.7241 45.513 23.9481 42.1018C24.3682 35.8764 24.6763 33.6592 25.4885 31.1292C26.3567 28.3719 26.4687 28.315 28.1212 29.2815C28.9054 29.7363 30.5858 30.9871 31.8741 32.0673C35.515 35.0521 35.543 35.0521 32.9664 31.8399C29.9416 28.0308 28.8493 26.2399 29.4095 25.8704C31.342 24.6196 35.7391 23.7384 42.0967 23.3404C44.7013 23.1699 46.9139 22.9709 46.9979 22.914C47.0539 22.8287 45.9896 22.7719 44.6173 22.7719C39.492 22.7719 33.3305 21.9191 30.9219 20.9242C29.1294 20.1567 29.0454 20.0145 29.6335 18.8206C30.2217 17.6836 33.7786 12.908 34.5068 12.2826C34.7868 12.0836 34.9829 11.7709 34.9829 11.6288C34.9829 11.4866 34.0586 12.1689 32.9664 13.1069C31.8461 14.0734 29.9976 15.4947 28.8493 16.2623L26.7768 17.6552L26.2447 16.7739C25.6285 15.779 24.7323 12.4816 24.4522 10.2643C24.3402 9.41151 24.1162 6.39832 23.9201 3.58412C23.696 0.201381 23.556 -0.79354 23.528 0.627777Z" fill="url(#paint0_linear_106_503)"/>
<defs>
<linearGradient id="paint0_linear_106_503" x1="23.5" y1="0" x2="23.5" y2="46" gradientUnits="userSpaceOnUse">
<stop offset="0.0989583" stop-color="#E40303"/>
<stop offset="0.293577" stop-color="#FF8C00"/>
<stop offset="0.452309" stop-color="#FFED00" stop-opacity="0.58"/>
<stop offset="0.538678" stop-color="#008026"/>
<stop offset="0.678736" stop-color="#004DFF"/>
<stop offset="0.818794" stop-color="#750787"/>
</linearGradient>
</defs>
</svg>
