<svg width="47" height="47" viewBox="0 0 47 47" fill="none" xmlns="http://www.w3.org/2000/svg">
<path d="M23.528 1.55307C23.472 5.02108 22.9399 11.1896 22.4918 13.3216C22.0156 15.7662 21.0354 18.2962 20.5593 18.2962C19.8871 18.2962 16.3022 15.7094 12.8013 12.6678C11.8771 11.8718 12.2972 12.5256 14.1457 14.7713C16.1342 17.216 18.1787 20.2292 18.1787 20.7408C18.1787 21.1957 15.658 22.1906 13.2494 22.7023C10.7568 23.2139 5.65953 23.6972 2.38271 23.6972C1.01037 23.6972 -0.053898 23.754 0.00211319 23.8109C0.0581272 23.8962 2.43872 24.0952 5.29544 24.2657C8.15216 24.4363 11.625 24.8058 13.0254 25.0901C15.8261 25.687 18.1787 26.5967 18.1787 27.1368C18.1787 27.6769 15.8541 31.0596 13.8656 33.419C12.8293 34.6413 12.0451 35.6362 12.1292 35.6362C12.1852 35.6362 13.1654 34.8403 14.3137 33.9022C16.3022 32.1967 18.7948 30.3774 20.0831 29.6951C20.6713 29.3824 20.7553 29.4393 21.3995 30.8606C21.7636 31.685 22.2397 33.3337 22.4918 34.4992C22.9399 36.8017 23.472 42.9134 23.528 46.4098C23.556 47.7459 23.7241 46.4382 23.9481 43.0271C24.3682 36.8017 24.6763 34.5845 25.4885 32.0545C26.3567 29.2972 26.4687 29.2403 28.1212 30.2068C28.9054 30.6616 30.5858 31.9124 31.8741 32.9926C35.515 35.9774 35.543 35.9774 32.9664 32.7652C29.9416 28.9561 28.8493 27.1652 29.4095 26.7957C31.342 25.5449 35.7391 24.6637 42.0967 24.2657C44.7013 24.0952 46.9139 23.8962 46.9979 23.8393C47.0539 23.754 45.9896 23.6972 44.6173 23.6972C39.492 23.6972 33.3305 22.8444 30.9219 21.8495C29.1294 21.082 29.0454 20.9398 29.6335 19.7459C30.2217 18.6089 33.7786 13.8332 34.5068 13.2079C34.7868 13.0089 34.9829 12.6962 34.9829 12.5541C34.9829 12.4119 34.0587 13.0942 32.9664 14.0322C31.8461 14.9987 29.9976 16.42 28.8493 17.1876L26.7768 18.5804L26.2447 17.6992C25.6285 16.7043 24.7323 13.4068 24.4522 11.1896C24.3402 10.3368 24.1162 7.32361 23.9201 4.50941C23.6961 1.12667 23.556 0.131753 23.528 1.55307Z" fill="url(#paint0_linear_105_255)"/>
<defs>
<linearGradient id="paint0_linear_105_255" x1="23.5" y1="0.925293" x2="23.5" y2="46.9253" gradientUnits="userSpaceOnUse">
<stop offset="0.277504" stop-color="#5BCEFA"/>
<stop offset="0.5" stop-color="#F5A8B8"/>
<stop offset="0.780721" stop-color="#5BCEFA"/>
</linearGradient>
</defs>
</svg>
