<svg width="679" height="665" viewBox="0 0 679 665" fill="none" xmlns="http://www.w3.org/2000/svg">
<path d="M339.905 9.07547C339.095 59.2109 331.408 148.386 324.934 179.207C318.056 214.548 303.894 251.123 297.016 251.123C287.305 251.123 235.515 213.727 184.938 169.755C171.586 158.249 177.655 167.701 204.36 200.165C233.087 235.507 262.624 279.067 262.624 286.464C262.624 293.039 226.209 307.422 191.412 314.819C155.402 322.216 81.7621 329.202 34.4225 329.202C14.5966 329.202 -0.778655 330.024 0.0305289 330.846C0.839753 332.079 35.2318 334.956 76.5022 337.421C117.773 339.887 167.944 345.229 188.175 349.339C228.636 357.969 262.624 371.119 262.624 378.927C262.624 386.735 229.041 435.637 200.313 469.746C185.343 487.417 174.014 501.8 175.228 501.8C176.037 501.8 190.198 490.293 206.787 476.732C235.515 452.075 271.525 425.775 290.137 415.912C298.634 411.392 299.848 412.213 309.154 432.761C314.414 444.678 321.292 468.513 324.934 485.362C331.408 518.648 339.095 607.002 339.905 657.548C340.309 676.863 342.737 657.959 345.974 608.646C352.043 518.648 356.494 486.595 368.227 450.02C380.77 410.159 382.389 409.337 406.261 423.309C417.59 429.884 441.867 447.966 460.479 463.582C513.079 506.731 513.483 506.731 476.259 460.294C432.561 405.227 416.781 379.338 424.873 373.995C452.791 355.914 516.315 343.175 608.162 337.421C645.791 334.956 677.756 332.079 678.969 331.257C679.779 330.024 664.403 329.202 644.577 329.202C570.533 329.202 481.519 316.874 446.722 302.491C420.827 291.395 419.613 289.341 428.11 272.081C436.607 255.643 487.993 186.604 498.512 177.563C502.559 174.687 505.391 170.166 505.391 168.112C505.391 166.057 492.039 175.919 476.259 189.481C460.074 203.453 433.37 224 416.781 235.096L386.84 255.232L379.152 242.493C370.251 228.11 357.303 180.44 353.257 148.386C351.638 136.058 348.401 92.4975 345.569 51.8138C342.332 2.91128 340.309 -11.4718 339.905 9.07547Z" fill="url(#paint0_linear_243_32)"/>
<defs>
<linearGradient id="paint0_linear_243_32" x1="339.5" y1="0" x2="339.5" y2="665" gradientUnits="userSpaceOnUse">
<stop offset="0.140313" stop-color="#078E70"/>
<stop offset="0.462747" stop-color="#99E7C2"/>
<stop offset="0.708411" stop-color="#3D1A78"/>
</linearGradient>
</defs>
</svg>
