<svg width="211" height="87" viewBox="0 0 211 87" fill="none" xmlns="http://www.w3.org/2000/svg">
<path d="M210 51.4058C210 52.7804 209.426 54.2188 208.146 55.7225C206.859 57.2337 204.909 58.7492 202.302 60.2312C197.088 63.1941 189.468 65.9006 179.953 68.1881C160.94 72.7587 134.616 75.5968 105.5 75.5968C76.3835 75.5968 50.06 72.7587 31.0475 68.1881C21.5318 65.9006 13.9115 63.1941 8.69838 60.2312C6.09122 58.7492 4.14069 57.2337 2.85429 55.7225C1.57432 54.2188 1 52.7804 1 51.4058C1 50.0313 1.57432 48.5929 2.85429 47.0892C4.14069 45.578 6.09122 44.0624 8.69838 42.5805C13.9115 39.6176 21.5318 36.9111 31.0475 34.6236C50.06 30.0529 76.3835 27.2148 105.5 27.2148C134.616 27.2148 160.94 30.0529 179.953 34.6236C189.468 36.9111 197.088 39.6176 202.302 42.5805C204.909 44.0624 206.859 45.578 208.146 47.0892C209.426 48.5929 210 50.0313 210 51.4058Z" stroke="url(#paint0_angular_256_61)"/>
<path d="M23.0615 13.9097H72.7571V22.0378C60.31 19.2317 50.9282 15.4579 30.7713 15.4579V45.1644C34.0224 41.1003 38.9455 39.5521 43.4971 40.5197C48.1415 41.4874 52.3215 44.8741 57.1517 45.5515C60.0313 46.0353 63.4682 46.0353 64.2113 41.9712C65.6975 48.9382 62.818 52.712 58.2664 53.3893C49.3491 54.5505 42.3824 43.713 35.23 44.5838C33.0006 44.8741 30.7713 46.2288 30.7713 49.035V86.4826H23.0615V13.9097ZM110.144 56.389V86.4826H102.434V56.389L79.2122 13.9097H88.1295L109.958 53.7764C117.297 40.3262 122.591 26.3922 125.657 13.9097H133.366L110.144 56.389ZM148.073 13.9097L171.388 84.1603C178.261 61.1305 184.113 39.3586 188.479 13.9097H196.189L172.131 86.4826H163.957L139.898 13.9097H148.073Z" fill="url(#paint1_linear_256_61)"/>
<path d="M34.6719 0H40.8838V1.01602C39.3279 0.665252 38.1552 0.193528 35.6356 0.193528V3.90684C36.042 3.39883 36.6574 3.20531 37.2263 3.32626C37.8069 3.44721 38.3294 3.87056 38.9332 3.95523C39.2931 4.0157 39.7227 4.0157 39.8156 3.50769C40.0014 4.37857 39.6414 4.85029 39.0725 4.93496C37.9578 5.08011 37.087 3.72541 36.1929 3.83427C35.9143 3.87056 35.6356 4.03989 35.6356 4.39066V9.07162H34.6719V0ZM45.3046 0C47.6385 0 49.5195 2.03204 49.5195 4.53581C49.5195 7.03958 47.6385 9.07162 45.3046 9.07162C42.9824 9.07162 41.0898 7.03958 41.0898 4.53581C41.0898 2.03204 42.9824 0 45.3046 0ZM45.3046 0.193528C43.5165 0.193528 42.0535 2.1409 42.0535 4.53581C42.0535 6.94281 43.5165 8.89019 45.3046 8.89019C47.1044 8.89019 48.5557 6.94281 48.5557 4.53581C48.5557 2.1409 47.1044 0.193528 45.3046 0.193528ZM50.8527 0H55.0559C56.2983 0 57.4362 0.882971 57.4362 2.34653C57.4362 3.93103 56.1822 4.68095 54.8004 4.68095C54.9978 4.77772 55.1488 4.92286 55.2649 5.1043C55.9732 6.09613 56.4376 7.43873 56.9833 8.35798C57.0878 8.53942 57.3549 8.95066 57.5407 9.07162H56.6466C56.3215 9.07162 56.1938 8.96276 56.0893 8.76923C55.4971 7.64435 55.0907 6.61623 54.394 5.47926C53.918 4.71724 53.3258 4.60838 52.6756 5.16477L52.5827 5.05591C53.2213 4.47533 53.8135 4.53581 54.5798 4.48743C55.857 4.41485 56.4608 3.56817 56.4608 2.34653C56.4608 1.0765 55.4507 0.193528 54.394 0.193528H51.8164V9.07162H50.8527V0Z" fill="url(#paint2_linear_256_61)"/>
<path d="M94.2718 5.30992V9.07162H93.3081V5.30992L90.4053 0H91.5199L94.2485 4.98334C95.1658 3.30207 95.8277 1.56032 96.2108 0H97.1746L94.2718 5.30992ZM101.367 0C103.701 0 105.582 2.03204 105.582 4.53581C105.582 7.03958 103.701 9.07162 101.367 9.07162C99.0446 9.07162 97.152 7.03958 97.152 4.53581C97.152 2.03204 99.0446 0 101.367 0ZM101.367 0.193528C99.5787 0.193528 98.1158 2.1409 98.1158 4.53581C98.1158 6.94281 99.5787 8.89019 101.367 8.89019C103.167 8.89019 104.618 6.94281 104.618 4.53581C104.618 2.1409 103.167 0.193528 101.367 0.193528ZM112.72 0H113.684V9.07162H112.72V7.42663C111.803 8.45475 110.352 9.07162 109.26 9.07162C107.681 9.07162 106.915 8.43056 106.915 6.76138V0H107.879V6.76138C107.879 8.3217 108.749 8.82971 109.829 8.70875C110.712 8.59989 111.733 8.10398 112.442 7.42663C112.628 7.2452 112.72 7.03958 112.72 6.77347V0ZM115.011 0H119.214C120.456 0 121.594 0.882971 121.594 2.34653C121.594 3.93103 120.34 4.68095 118.959 4.68095C119.156 4.77772 119.307 4.92286 119.423 5.1043C120.131 6.09613 120.596 7.43873 121.142 8.35798C121.246 8.53942 121.513 8.95066 121.699 9.07162H120.805C120.48 9.07162 120.352 8.96276 120.247 8.76923C119.655 7.64435 119.249 6.61623 118.552 5.47926C118.076 4.71724 117.484 4.60838 116.834 5.16477L116.741 5.05591C117.38 4.47533 117.972 4.53581 118.738 4.48743C120.015 4.41485 120.619 3.56817 120.619 2.34653C120.619 1.0765 119.609 0.193528 118.552 0.193528H115.975V9.07162H115.011V0Z" fill="url(#paint3_linear_256_61)"/>
<path d="M151.805 0L154.719 8.78133C155.579 5.9026 156.31 3.18111 156.856 0H157.82L154.812 9.07162H153.79L150.783 0H151.805ZM162.278 0C164.612 0 166.493 2.03204 166.493 4.53581C166.493 7.03958 164.612 9.07162 162.278 9.07162C159.956 9.07162 158.063 7.03958 158.063 4.53581C158.063 2.03204 159.956 0 162.278 0ZM162.278 0.193528C160.49 0.193528 159.027 2.1409 159.027 4.53581C159.027 6.94281 160.49 8.89019 162.278 8.89019C164.077 8.89019 165.529 6.94281 165.529 4.53581C165.529 2.1409 164.077 0.193528 162.278 0.193528ZM167.826 9.07162V0H168.789V9.07162H167.826ZM174.278 0C174.905 0 175.555 0.120955 176.124 0.387056C176.681 0.665252 177.401 1.22164 177.401 1.92318C177.401 2.46748 177.041 2.87873 176.391 2.86663C176.89 1.40308 175.729 0.193528 174.278 0.193528C172.408 0.193528 170.887 2.1409 170.887 4.53581C170.887 6.20499 171.63 7.65645 172.698 8.38217C174.347 9.49496 176.321 8.5878 177.401 7.05167V8.06769C176.611 8.72085 175.497 9.07162 174.278 9.07162C171.886 9.07162 169.923 7.05167 169.923 4.53581C169.923 2.03204 171.874 0 174.278 0ZM182.464 0C183.091 0 183.742 0.120955 184.311 0.387056C184.868 0.665252 185.588 1.22164 185.588 1.92318C185.588 2.46748 185.228 2.87873 184.578 2.86663C185.077 1.40308 183.916 0.193528 182.464 0.193528C180.758 0.193528 179.353 1.80223 179.109 3.89475C179.445 3.43512 179.956 3.28997 180.432 3.30207C181.303 3.30207 182.07 3.93103 182.882 4.03989C183.3 4.08828 183.8 4.0157 183.904 3.50769C184.171 4.59629 183.405 5.11639 182.464 4.97125C181.489 4.80191 180.572 3.84637 179.747 3.84637C179.318 3.85846 179.074 4.08828 179.074 4.53581C179.086 6.20499 179.817 7.65645 180.885 8.38217C182.534 9.49496 184.508 8.5878 185.588 7.05167V8.06769C184.798 8.72085 183.684 9.07162 182.464 9.07162C180.072 9.07162 178.11 7.05167 178.11 4.53581C178.11 2.03204 180.061 0 182.464 0Z" fill="url(#paint4_linear_256_61)"/>
<defs>
<radialGradient id="paint0_angular_256_61" cx="0" cy="0" r="1" gradientUnits="userSpaceOnUse" gradientTransform="translate(105.5 51.4058) rotate(90) scale(24.191 104.5)">
<stop stop-color="#D42B00"/>
<stop offset="0.5" stop-color="#FF9A54"/>
<stop offset="1" stop-color="#A30262"/>
</radialGradient>
<linearGradient id="paint1_linear_256_61" x1="109.625" y1="13.9097" x2="109.625" y2="86.4826" gradientUnits="userSpaceOnUse">
<stop stop-color="#D42B00"/>
<stop offset="0.494792" stop-color="#FF9A54"/>
<stop offset="0.927083" stop-color="#A30262"/>
</linearGradient>
<linearGradient id="paint2_linear_256_61" x1="46.1063" y1="0" x2="46.1063" y2="9.07162" gradientUnits="userSpaceOnUse">
<stop stop-color="#D42B00"/>
<stop offset="0.494792" stop-color="#FF9A54"/>
<stop offset="0.927083" stop-color="#A30262"/>
</linearGradient>
<linearGradient id="paint3_linear_256_61" x1="106.052" y1="0" x2="106.052" y2="9.07162" gradientUnits="userSpaceOnUse">
<stop stop-color="#D42B00"/>
<stop offset="0.494792" stop-color="#FF9A54"/>
<stop offset="0.927083" stop-color="#A30262"/>
</linearGradient>
<linearGradient id="paint4_linear_256_61" x1="168.185" y1="0" x2="168.185" y2="9.07162" gradientUnits="userSpaceOnUse">
<stop stop-color="#D42B00"/>
<stop offset="0.494792" stop-color="#FF9A54"/>
<stop offset="0.927083" stop-color="#A30262"/>
</linearGradient>
</defs>
</svg>
