<svg width="421" height="227" viewBox="0 0 421 227" fill="none" xmlns="http://www.w3.org/2000/svg">
<path d="M31 27L138 27V43.8C111.2 38 91 30.2 47.6 30.2L47.6 91.6C54.6 83.2 65.2 80 75 82C85 84 94 91 104.4 92.4C110.6 93.4 118 93.4 119.6 85C122.8 99.4 116.6 107.2 106.8 108.6C87.6 111 72.6 88.6 57.2 90.4C52.4 91 47.6 93.8 47.6 99.6L47.6 177H31L31 27ZM218.498 114.8L218.498 177H201.898L201.898 114.8L151.898 27L171.098 27L218.098 109.4C233.898 81.6 245.298 52.8 251.898 27L268.498 27L218.498 114.8ZM300.163 27L350.363 172.2C365.163 124.6 377.763 79.6 387.163 27L403.763 27L351.963 177H334.363L282.562 27L300.163 27Z" fill="black"/>
<path d="M308.2 0.249999L314.475 18.4C316.325 12.45 317.9 6.825 319.075 0.249999L321.15 0.249999L314.675 19H312.475L306 0.249999L308.2 0.249999ZM330.749 0.249999C335.774 0.249999 339.824 4.45 339.824 9.625C339.824 14.8 335.774 19 330.749 19C325.749 19 321.674 14.8 321.674 9.625C321.674 4.45 325.749 0.249999 330.749 0.249999ZM330.749 0.649999C326.899 0.649999 323.749 4.675 323.749 9.625C323.749 14.6 326.899 18.625 330.749 18.625C334.624 18.625 337.749 14.6 337.749 9.625C337.749 4.675 334.624 0.649999 330.749 0.649999ZM342.694 19V0.249999L344.769 0.249999V19H342.694ZM356.586 0.249999C357.936 0.249999 359.336 0.5 360.561 1.05C361.761 1.625 363.311 2.775 363.311 4.225C363.311 5.35 362.536 6.2 361.136 6.175C362.211 3.15 359.711 0.649999 356.586 0.649999C352.561 0.649999 349.286 4.675 349.286 9.625C349.286 13.075 350.886 16.075 353.186 17.575C356.736 19.875 360.986 18 363.311 14.825V16.925C361.611 18.275 359.211 19 356.586 19C351.436 19 347.211 14.825 347.211 9.625C347.211 4.45 351.411 0.249999 356.586 0.249999ZM374.213 0.249999C375.563 0.249999 376.963 0.5 378.188 1.05C379.388 1.625 380.938 2.775 380.938 4.225C380.938 5.35 380.163 6.2 378.763 6.175C379.838 3.15 377.338 0.649999 374.213 0.649999C370.538 0.649999 367.513 3.975 366.988 8.3C367.713 7.35 368.813 7.05 369.838 7.075C371.713 7.075 373.363 8.375 375.113 8.6C376.013 8.7 377.088 8.55 377.313 7.5C377.888 9.75 376.238 10.825 374.213 10.525C372.113 10.175 370.138 8.2 368.363 8.2C367.438 8.225 366.913 8.7 366.913 9.625C366.938 13.075 368.513 16.075 370.813 17.575C374.363 19.875 378.613 18 380.938 14.825V16.925C379.238 18.275 376.838 19 374.213 19C369.063 19 364.838 14.825 364.838 9.625C364.838 4.45 369.038 0.249999 374.213 0.249999Z" fill="black"/>
<path d="M186.325 12.225V20H184.25V12.225L178 1.25L180.4 1.25L186.275 11.55C188.25 8.075 189.675 4.475 190.5 1.25L192.575 1.25L186.325 12.225ZM201.601 1.25C206.626 1.25 210.676 5.45 210.676 10.625C210.676 15.8 206.626 20 201.601 20C196.601 20 192.526 15.8 192.526 10.625C192.526 5.45 196.601 1.25 201.601 1.25ZM201.601 1.65C197.751 1.65 194.601 5.675 194.601 10.625C194.601 15.6 197.751 19.625 201.601 19.625C205.476 19.625 208.601 15.6 208.601 10.625C208.601 5.675 205.476 1.65 201.601 1.65ZM226.047 1.25L228.122 1.25V20H226.047V16.6C224.072 18.725 220.947 20 218.597 20C215.197 20 213.547 18.675 213.547 15.225V1.25L215.622 1.25V15.225C215.622 18.45 217.497 19.5 219.822 19.25C221.722 19.025 223.922 18 225.447 16.6C225.847 16.225 226.047 15.8 226.047 15.25V1.25ZM230.979 1.25L240.029 1.25C242.704 1.25 245.154 3.075 245.154 6.1C245.154 9.375 242.454 10.925 239.479 10.925C239.904 11.125 240.229 11.425 240.479 11.8C242.004 13.85 243.004 16.625 244.179 18.525C244.404 18.9 244.979 19.75 245.379 20H243.454C242.754 20 242.479 19.775 242.254 19.375C240.979 17.05 240.104 14.925 238.604 12.575C237.579 11 236.304 10.775 234.904 11.925L234.704 11.7C236.079 10.5 237.354 10.625 239.004 10.525C241.754 10.375 243.054 8.625 243.054 6.1C243.054 3.475 240.879 1.65 238.604 1.65L233.054 1.65V20H230.979V1.25Z" fill="black"/>
<path d="M48 1.25L61.375 1.25V3.35C58.025 2.625 55.5 1.65 50.075 1.65V9.325C50.95 8.275 52.275 7.875 53.5 8.125C54.75 8.375 55.875 9.25 57.175 9.425C57.95 9.55 58.875 9.55 59.075 8.5C59.475 10.3 58.7 11.275 57.475 11.45C55.075 11.75 53.2 8.95 51.275 9.175C50.675 9.25 50.075 9.6 50.075 10.325V20H48V1.25ZM70.8934 1.25C75.9184 1.25 79.9684 5.45 79.9684 10.625C79.9684 15.8 75.9184 20 70.8934 20C65.8934 20 61.8184 15.8 61.8184 10.625C61.8184 5.45 65.8934 1.25 70.8934 1.25ZM70.8934 1.65C67.0434 1.65 63.8934 5.675 63.8934 10.625C63.8934 15.6 67.0434 19.625 70.8934 19.625C74.7684 19.625 77.8934 15.6 77.8934 10.625C77.8934 5.675 74.7684 1.65 70.8934 1.65ZM82.8389 1.25L91.8889 1.25C94.5639 1.25 97.0139 3.075 97.0139 6.1C97.0139 9.375 94.3139 10.925 91.3389 10.925C91.7639 11.125 92.0889 11.425 92.3389 11.8C93.8639 13.85 94.8639 16.625 96.0389 18.525C96.2639 18.9 96.8389 19.75 97.2389 20H95.3139C94.6139 20 94.3389 19.775 94.1139 19.375C92.8389 17.05 91.9639 14.925 90.4639 12.575C89.4389 11 88.1639 10.775 86.7639 11.925L86.5639 11.7C87.9389 10.5 89.2139 10.625 90.8639 10.525C93.6139 10.375 94.9139 8.625 94.9139 6.1C94.9139 3.475 92.7389 1.65 90.4639 1.65L84.9139 1.65V20H82.8389V1.25Z" fill="black"/>
<path d="M407.25 97C407.25 104.337 401.824 111.507 391.56 118.169C381.329 124.809 366.474 130.817 348.051 135.875C311.216 145.986 260.286 152.25 204 152.25C147.714 152.25 96.7842 145.986 59.9488 135.875C41.5257 130.817 26.671 124.809 16.4396 118.169C6.17577 111.507 0.75 104.337 0.75 97C0.75 89.6629 6.17577 82.4928 16.4396 75.8314C26.671 69.1911 41.5257 63.1826 59.9488 58.1253C96.7842 48.0136 147.714 41.75 204 41.75C260.286 41.75 311.216 48.0136 348.051 58.1253C366.474 63.1826 381.329 69.1911 391.56 75.8314C401.824 82.4928 407.25 89.6629 407.25 97Z" stroke="black" stroke-width="1.5"/>
</svg>
