<svg width="60" height="59" viewBox="0 0 60 59" fill="none" xmlns="http://www.w3.org/2000/svg">
<path d="M29.9311 0.603516C22.9064 0.603807 16.1111 3.10364 10.761 7.65573C5.41083 12.2078 1.85501 18.5151 0.729756 25.449C-0.395499 32.383 0.98324 39.491 4.61927 45.5014C8.25531 51.5118 13.9114 56.0323 20.5754 58.254C22.0546 58.5129 22.6093 57.6255 22.6093 56.8488C22.6093 56.1462 22.5722 53.8165 22.5722 51.3389C15.1394 52.7071 13.2165 49.527 12.6248 47.863C11.9683 46.2445 10.9276 44.8103 9.59253 43.6842C8.55711 43.1296 7.07795 41.7613 9.55552 41.7244C10.5016 41.8271 11.4089 42.1563 12.2007 42.6841C12.9925 43.2119 13.6453 43.9228 14.104 44.7566C14.5086 45.4835 15.0527 46.1234 15.705 46.6396C16.3573 47.1558 17.1051 47.5382 17.9055 47.765C18.7059 47.9917 19.5432 48.0583 20.3694 47.9608C21.1955 47.8634 21.9944 47.6039 22.7201 47.1972C22.8481 45.6933 23.5184 44.2871 24.6061 43.2406C18.0238 42.501 11.1457 39.9493 11.1457 28.6338C11.1041 25.6937 12.189 22.849 14.1779 20.6833C13.2735 18.1279 13.3794 15.3236 14.4738 12.8437C14.4738 12.8437 16.9513 12.0671 22.6092 15.876C27.4499 14.5447 32.5602 14.5447 37.4009 15.876C43.0586 12.0302 45.5363 12.8437 45.5363 12.8437C46.6309 15.3236 46.7367 18.128 45.8321 20.6833C47.827 22.8453 48.9129 25.6924 48.8644 28.6338C48.8644 39.9863 41.9492 42.501 35.367 43.2406C36.073 43.9562 36.6168 44.8153 36.9613 45.7596C37.3059 46.704 37.4432 47.7114 37.3639 48.7135C37.3639 52.6703 37.3269 55.8504 37.3269 56.8489C37.3269 57.6255 37.8816 58.55 39.3607 58.2541C46.013 56.0143 51.6528 51.4832 55.2734 45.4697C58.8939 39.4563 60.2596 32.3518 59.1265 25.4246C57.9935 18.4974 54.4355 12.1983 49.0877 7.65178C43.7399 3.10523 36.9503 0.607169 29.9311 0.603516Z" fill="url(#paint0_linear_105_371)"/>
<defs>
<linearGradient id="paint0_linear_105_371" x1="29.9312" y1="0.603516" x2="29.9312" y2="58.3106" gradientUnits="userSpaceOnUse">
<stop stop-color="#FDF435"/>
<stop offset="0.473958" stop-color="#9C5CD4"/>
<stop offset="0.916667" stop-color="#2C2C2C"/>
</linearGradient>
</defs>
</svg>
