<svg width="930" height="37" viewBox="0 0 930 37" fill="none" xmlns="http://www.w3.org/2000/svg">
<path d="M3.456 27.189C3.096 27.189 2.817 27.09 2.619 26.892C2.439 26.676 2.349 26.388 2.349 26.028V9.099C2.349 8.721 2.448 8.442 2.646 8.262C2.844 8.064 3.123 7.965 3.483 7.965H9.882C11.916 7.965 13.482 8.469 14.58 9.477C15.678 10.467 16.227 11.871 16.227 13.689C16.227 15.489 15.678 16.893 14.58 17.901C13.482 18.909 11.916 19.413 9.882 19.413H4.563V26.028C4.563 26.388 4.473 26.676 4.293 26.892C4.113 27.09 3.834 27.189 3.456 27.189ZM4.563 17.55H9.612C11.07 17.55 12.168 17.226 12.906 16.578C13.662 15.912 14.04 14.949 14.04 13.689C14.04 12.411 13.662 11.448 12.906 10.8C12.168 10.134 11.07 9.801 9.612 9.801H4.563V17.55ZM17.1051 27.189C16.8171 27.189 16.5831 27.126 16.4031 27C16.2411 26.856 16.1421 26.676 16.1061 26.46C16.0881 26.226 16.1421 25.965 16.2681 25.677L23.6931 8.775C23.8551 8.415 24.0441 8.163 24.2601 8.019C24.4941 7.857 24.7461 7.776 25.0161 7.776C25.2861 7.776 25.5291 7.857 25.7451 8.019C25.9791 8.163 26.1681 8.415 26.3121 8.775L33.7641 25.677C33.9081 25.965 33.9621 26.226 33.9261 26.46C33.9081 26.694 33.8181 26.874 33.6561 27C33.4941 27.126 33.2691 27.189 32.9811 27.189C32.6571 27.189 32.3961 27.108 32.1981 26.946C32.0001 26.766 31.8381 26.514 31.7121 26.19L29.7141 21.573L30.7941 22.14H19.1841L20.2911 21.573L18.3201 26.19C18.1581 26.532 17.9871 26.784 17.8071 26.946C17.6271 27.108 17.3931 27.189 17.1051 27.189ZM24.9891 10.557L20.6421 20.79L19.9941 20.277H29.9841L29.3901 20.79L25.0431 10.557H24.9891ZM25.9881 6.237C25.8441 6.399 25.6731 6.489 25.4751 6.507C25.2951 6.507 25.1331 6.462 24.9891 6.372C24.8451 6.264 24.7461 6.129 24.6921 5.967C24.6561 5.805 24.7011 5.625 24.8271 5.427L27.2301 1.944C27.3921 1.71 27.5721 1.566 27.7701 1.512C27.9681 1.458 28.1661 1.467 28.3641 1.539C28.5621 1.593 28.7151 1.692 28.8231 1.836C28.9491 1.98 29.0121 2.151 29.0121 2.349C29.0301 2.529 28.9581 2.718 28.7961 2.916L25.9881 6.237ZM45.5576 27.243C43.5236 27.243 41.8046 26.856 40.4006 26.082C39.0146 25.308 37.9616 24.192 37.2416 22.734C36.5216 21.276 36.1616 19.53 36.1616 17.496C36.1616 15.984 36.3596 14.625 36.7556 13.419C37.1696 12.213 37.7636 11.196 38.5376 10.368C39.3296 9.522 40.2836 8.874 41.3996 8.424C42.5336 7.956 43.8116 7.722 45.2336 7.722C46.3676 7.722 47.4656 7.884 48.5276 8.208C49.5896 8.514 50.5346 9.009 51.3626 9.693C51.5786 9.855 51.7136 10.035 51.7677 10.233C51.8216 10.431 51.8126 10.629 51.7406 10.827C51.6866 11.025 51.5876 11.196 51.4436 11.34C51.3176 11.466 51.1466 11.538 50.9306 11.556C50.7326 11.574 50.5256 11.511 50.3096 11.367C49.5716 10.791 48.7886 10.377 47.9606 10.125C47.1326 9.855 46.2146 9.72 45.2066 9.72C43.7666 9.72 42.5426 10.026 41.5346 10.638C40.5446 11.25 39.7886 12.132 39.2666 13.284C38.7626 14.436 38.5106 15.84 38.5106 17.496C38.5106 20.016 39.0956 21.942 40.2656 23.274C41.4536 24.606 43.2356 25.272 45.6116 25.272C46.4756 25.272 47.3216 25.191 48.1496 25.029C48.9776 24.849 49.7606 24.606 50.4986 24.3L50.0126 25.569V18.846H46.1516C45.8276 18.846 45.5846 18.765 45.4226 18.603C45.2606 18.441 45.1796 18.225 45.1796 17.955C45.1796 17.667 45.2606 17.451 45.4226 17.307C45.5846 17.163 45.8276 17.091 46.1516 17.091H50.9846C51.2906 17.091 51.5246 17.172 51.6866 17.334C51.8486 17.496 51.9296 17.73 51.9296 18.036V25.083C51.9296 25.353 51.8846 25.578 51.7946 25.758C51.7046 25.938 51.5516 26.073 51.3356 26.163C50.5796 26.469 49.6706 26.73 48.6086 26.946C47.5646 27.144 46.5476 27.243 45.5576 27.243ZM57.5615 27.189C57.2015 27.189 56.9225 27.09 56.7245 26.892C56.5445 26.676 56.4545 26.388 56.4545 26.028V8.937C56.4545 8.559 56.5445 8.271 56.7245 8.073C56.9225 7.875 57.2015 7.776 57.5615 7.776C57.9215 7.776 58.1915 7.875 58.3715 8.073C58.5695 8.271 58.6685 8.559 58.6685 8.937V26.028C58.6685 26.388 58.5785 26.676 58.3985 26.892C58.2185 27.09 57.9395 27.189 57.5615 27.189ZM64.442 27.189C64.1 27.189 63.839 27.099 63.659 26.919C63.479 26.721 63.389 26.442 63.389 26.082V8.91C63.389 8.55 63.479 8.271 63.659 8.073C63.839 7.875 64.073 7.776 64.361 7.776C64.649 7.776 64.856 7.83 64.982 7.938C65.126 8.028 65.288 8.199 65.468 8.451L77.24 24.138H76.592V8.856C76.592 8.514 76.682 8.253 76.862 8.073C77.042 7.875 77.303 7.776 77.645 7.776C77.969 7.776 78.212 7.875 78.374 8.073C78.554 8.253 78.644 8.514 78.644 8.856V26.109C78.644 26.451 78.563 26.721 78.401 26.919C78.257 27.099 78.041 27.189 77.753 27.189C77.483 27.189 77.267 27.135 77.105 27.027C76.943 26.919 76.772 26.748 76.592 26.514L64.847 10.827H65.468V26.082C65.468 26.442 65.378 26.721 65.198 26.919C65.018 27.099 64.766 27.189 64.442 27.189ZM82.9704 27.189C82.6824 27.189 82.4484 27.126 82.2684 27C82.1064 26.856 82.0074 26.676 81.9714 26.46C81.9534 26.226 82.0074 25.965 82.1334 25.677L89.5584 8.775C89.7204 8.415 89.9094 8.163 90.1254 8.019C90.3594 7.857 90.6114 7.776 90.8814 7.776C91.1514 7.776 91.3944 7.857 91.6104 8.019C91.8444 8.163 92.0334 8.415 92.1774 8.775L99.6294 25.677C99.7734 25.965 99.8274 26.226 99.7914 26.46C99.7734 26.694 99.6834 26.874 99.5214 27C99.3594 27.126 99.1344 27.189 98.8464 27.189C98.5224 27.189 98.2614 27.108 98.0634 26.946C97.8654 26.766 97.7034 26.514 97.5774 26.19L95.5794 21.573L96.6594 22.14H85.0494L86.1564 21.573L84.1854 26.19C84.0234 26.532 83.8524 26.784 83.6724 26.946C83.4924 27.108 83.2584 27.189 82.9704 27.189ZM90.8544 10.557L86.5074 20.79L85.8594 20.277H95.8494L95.2554 20.79L90.9084 10.557H90.8544ZM111.113 27.189C110.753 27.189 110.474 27.09 110.276 26.892C110.096 26.676 110.006 26.388 110.006 26.028V8.937C110.006 8.559 110.096 8.271 110.276 8.073C110.474 7.875 110.753 7.776 111.113 7.776C111.473 7.776 111.743 7.875 111.923 8.073C112.121 8.271 112.22 8.559 112.22 8.937V26.028C112.22 26.388 112.13 26.676 111.95 26.892C111.77 27.09 111.491 27.189 111.113 27.189ZM117.994 27.189C117.652 27.189 117.391 27.099 117.211 26.919C117.031 26.721 116.941 26.442 116.941 26.082V8.91C116.941 8.55 117.031 8.271 117.211 8.073C117.391 7.875 117.625 7.776 117.913 7.776C118.201 7.776 118.408 7.83 118.534 7.938C118.678 8.028 118.84 8.199 119.02 8.451L130.792 24.138H130.144V8.856C130.144 8.514 130.234 8.253 130.414 8.073C130.594 7.875 130.855 7.776 131.197 7.776C131.521 7.776 131.764 7.875 131.926 8.073C132.106 8.253 132.196 8.514 132.196 8.856V26.109C132.196 26.451 132.115 26.721 131.953 26.919C131.809 27.099 131.593 27.189 131.305 27.189C131.035 27.189 130.819 27.135 130.657 27.027C130.495 26.919 130.324 26.748 130.144 26.514L118.399 10.827H119.02V26.082C119.02 26.442 118.93 26.721 118.75 26.919C118.57 27.099 118.318 27.189 117.994 27.189ZM138.034 27.189C137.674 27.189 137.395 27.09 137.197 26.892C137.017 26.676 136.927 26.388 136.927 26.028V8.937C136.927 8.559 137.017 8.271 137.197 8.073C137.395 7.875 137.674 7.776 138.034 7.776C138.394 7.776 138.664 7.875 138.844 8.073C139.042 8.271 139.141 8.559 139.141 8.937V26.028C139.141 26.388 139.051 26.676 138.871 26.892C138.691 27.09 138.412 27.189 138.034 27.189ZM152.097 27.243C150.225 27.243 148.623 26.847 147.291 26.055C145.959 25.263 144.933 24.138 144.213 22.68C143.511 21.222 143.16 19.485 143.16 17.469C143.16 15.957 143.358 14.607 143.754 13.419C144.168 12.213 144.753 11.196 145.509 10.368C146.283 9.522 147.228 8.874 148.344 8.424C149.46 7.956 150.711 7.722 152.097 7.722C153.213 7.722 154.275 7.884 155.283 8.208C156.291 8.514 157.164 8.973 157.902 9.585C158.136 9.765 158.289 9.972 158.361 10.206C158.451 10.422 158.46 10.638 158.388 10.854C158.334 11.052 158.226 11.223 158.064 11.367C157.92 11.493 157.74 11.556 157.524 11.556C157.308 11.556 157.065 11.466 156.795 11.286C156.147 10.764 155.436 10.377 154.662 10.125C153.888 9.873 153.051 9.747 152.151 9.747C150.729 9.747 149.523 10.053 148.533 10.665C147.543 11.259 146.796 12.132 146.292 13.284C145.788 14.436 145.536 15.831 145.536 17.469C145.536 19.107 145.788 20.511 146.292 21.681C146.796 22.833 147.543 23.715 148.533 24.327C149.523 24.921 150.729 25.218 152.151 25.218C153.033 25.218 153.87 25.092 154.662 24.84C155.454 24.57 156.183 24.174 156.849 23.652C157.119 23.472 157.362 23.391 157.578 23.409C157.794 23.409 157.974 23.472 158.118 23.598C158.262 23.724 158.361 23.886 158.415 24.084C158.487 24.282 158.487 24.489 158.415 24.705C158.361 24.921 158.226 25.11 158.01 25.272C157.254 25.92 156.363 26.415 155.337 26.757C154.329 27.081 153.249 27.243 152.097 27.243ZM163.136 27.189C162.776 27.189 162.497 27.09 162.299 26.892C162.119 26.676 162.029 26.388 162.029 26.028V8.937C162.029 8.559 162.119 8.271 162.299 8.073C162.497 7.875 162.776 7.776 163.136 7.776C163.496 7.776 163.766 7.875 163.946 8.073C164.144 8.271 164.243 8.559 164.243 8.937V26.028C164.243 26.388 164.153 26.676 163.973 26.892C163.793 27.09 163.514 27.189 163.136 27.189ZM168.558 27.189C168.27 27.189 168.036 27.126 167.856 27C167.694 26.856 167.595 26.676 167.559 26.46C167.541 26.226 167.595 25.965 167.721 25.677L175.146 8.775C175.308 8.415 175.497 8.163 175.713 8.019C175.947 7.857 176.199 7.776 176.469 7.776C176.739 7.776 176.982 7.857 177.198 8.019C177.432 8.163 177.621 8.415 177.765 8.775L185.217 25.677C185.361 25.965 185.415 26.226 185.379 26.46C185.361 26.694 185.271 26.874 185.109 27C184.947 27.126 184.722 27.189 184.434 27.189C184.11 27.189 183.849 27.108 183.651 26.946C183.453 26.766 183.291 26.514 183.165 26.19L181.167 21.573L182.247 22.14H170.637L171.744 21.573L169.773 26.19C169.611 26.532 169.44 26.784 169.26 26.946C169.08 27.108 168.846 27.189 168.558 27.189ZM176.442 10.557L172.095 20.79L171.447 20.277H181.437L180.843 20.79L176.496 10.557H176.442ZM189.767 27C189.407 27 189.128 26.901 188.93 26.703C188.732 26.487 188.633 26.199 188.633 25.839V8.991C188.633 8.613 188.723 8.325 188.903 8.127C189.101 7.929 189.38 7.83 189.74 7.83C190.1 7.83 190.37 7.929 190.55 8.127C190.748 8.325 190.847 8.613 190.847 8.991V25.056H199.703C200.027 25.056 200.279 25.146 200.459 25.326C200.639 25.488 200.729 25.722 200.729 26.028C200.729 26.334 200.639 26.577 200.459 26.757C200.279 26.919 200.027 27 199.703 27H189.767Z" fill="url(#paint0_linear_243_33)"/>
<path d="M272.483 27C272.123 27 271.844 26.901 271.646 26.703C271.448 26.487 271.349 26.199 271.349 25.839V8.991C271.349 8.613 271.439 8.325 271.619 8.127C271.817 7.929 272.096 7.83 272.456 7.83C272.816 7.83 273.086 7.929 273.266 8.127C273.464 8.325 273.563 8.613 273.563 8.991V25.056H282.419C282.743 25.056 282.995 25.146 283.175 25.326C283.355 25.488 283.445 25.722 283.445 26.028C283.445 26.334 283.355 26.577 283.175 26.757C282.995 26.919 282.743 27 282.419 27H272.483ZM287.116 27.189C286.756 27.189 286.477 27.09 286.279 26.892C286.099 26.676 286.009 26.388 286.009 26.028V8.937C286.009 8.559 286.099 8.271 286.279 8.073C286.477 7.875 286.756 7.776 287.116 7.776C287.476 7.776 287.746 7.875 287.926 8.073C288.124 8.271 288.223 8.559 288.223 8.937V26.028C288.223 26.388 288.133 26.676 287.953 26.892C287.773 27.09 287.494 27.189 287.116 27.189ZM293.997 27.189C293.655 27.189 293.394 27.099 293.214 26.919C293.034 26.721 292.944 26.442 292.944 26.082V8.91C292.944 8.55 293.034 8.271 293.214 8.073C293.394 7.875 293.628 7.776 293.916 7.776C294.204 7.776 294.411 7.83 294.537 7.938C294.681 8.028 294.843 8.199 295.023 8.451L306.795 24.138H306.147V8.856C306.147 8.514 306.237 8.253 306.417 8.073C306.597 7.875 306.858 7.776 307.2 7.776C307.524 7.776 307.767 7.875 307.929 8.073C308.109 8.253 308.199 8.514 308.199 8.856V26.109C308.199 26.451 308.118 26.721 307.956 26.919C307.812 27.099 307.596 27.189 307.308 27.189C307.038 27.189 306.822 27.135 306.66 27.027C306.498 26.919 306.327 26.748 306.147 26.514L294.402 10.827H295.023V26.082C295.023 26.442 294.933 26.721 294.753 26.919C294.573 27.099 294.321 27.189 293.997 27.189ZM314.037 27.189C313.677 27.189 313.398 27.09 313.2 26.892C313.02 26.676 312.93 26.388 312.93 26.028V8.937C312.93 8.559 313.02 8.271 313.2 8.073C313.398 7.875 313.677 7.776 314.037 7.776C314.397 7.776 314.667 7.875 314.847 8.073C315.045 8.271 315.144 8.559 315.144 8.937V16.389H326.565V8.937C326.565 8.559 326.655 8.271 326.835 8.073C327.033 7.875 327.312 7.776 327.672 7.776C328.032 7.776 328.302 7.875 328.482 8.073C328.68 8.271 328.779 8.559 328.779 8.937V26.028C328.779 26.388 328.68 26.676 328.482 26.892C328.302 27.09 328.032 27.189 327.672 27.189C327.312 27.189 327.033 27.09 326.835 26.892C326.655 26.676 326.565 26.388 326.565 26.028V18.306H315.144V26.028C315.144 26.388 315.054 26.676 314.874 26.892C314.694 27.09 314.415 27.189 314.037 27.189ZM333.065 27.189C332.777 27.189 332.543 27.126 332.363 27C332.201 26.856 332.102 26.676 332.066 26.46C332.048 26.226 332.102 25.965 332.228 25.677L339.653 8.775C339.815 8.415 340.004 8.163 340.22 8.019C340.454 7.857 340.706 7.776 340.976 7.776C341.246 7.776 341.489 7.857 341.705 8.019C341.939 8.163 342.128 8.415 342.272 8.775L349.724 25.677C349.868 25.965 349.922 26.226 349.886 26.46C349.868 26.694 349.778 26.874 349.616 27C349.454 27.126 349.229 27.189 348.941 27.189C348.617 27.189 348.356 27.108 348.158 26.946C347.96 26.766 347.798 26.514 347.672 26.19L345.674 21.573L346.754 22.14H335.144L336.251 21.573L334.28 26.19C334.118 26.532 333.947 26.784 333.767 26.946C333.587 27.108 333.353 27.189 333.065 27.189ZM340.949 10.557L336.602 20.79L335.954 20.277H345.944L345.35 20.79L341.003 10.557H340.949ZM359.138 27.243C358.292 27.243 357.464 27.171 356.654 27.027C355.844 26.883 355.088 26.676 354.386 26.406C353.702 26.136 353.081 25.794 352.523 25.38C352.307 25.218 352.154 25.038 352.064 24.84C351.992 24.624 351.974 24.417 352.01 24.219C352.064 24.003 352.154 23.823 352.28 23.679C352.424 23.535 352.595 23.454 352.793 23.436C352.991 23.418 353.207 23.481 353.441 23.625C354.251 24.201 355.115 24.624 356.033 24.894C356.951 25.146 357.986 25.272 359.138 25.272C360.758 25.272 361.955 24.975 362.729 24.381C363.521 23.769 363.917 22.968 363.917 21.978C363.917 21.168 363.629 20.538 363.053 20.088C362.495 19.62 361.55 19.251 360.218 18.981L357.41 18.414C355.718 18.054 354.449 17.469 353.603 16.659C352.775 15.831 352.361 14.733 352.361 13.365C352.361 12.519 352.532 11.754 352.874 11.07C353.216 10.368 353.693 9.774 354.305 9.288C354.917 8.784 355.646 8.397 356.492 8.127C357.338 7.857 358.274 7.722 359.3 7.722C360.434 7.722 361.487 7.884 362.459 8.208C363.449 8.514 364.34 8.982 365.132 9.612C365.33 9.774 365.465 9.963 365.537 10.179C365.609 10.377 365.618 10.575 365.564 10.773C365.51 10.953 365.411 11.106 365.267 11.232C365.141 11.358 364.97 11.43 364.754 11.448C364.556 11.466 364.331 11.394 364.079 11.232C363.359 10.692 362.612 10.305 361.838 10.071C361.064 9.819 360.209 9.693 359.273 9.693C358.319 9.693 357.491 9.837 356.789 10.125C356.105 10.413 355.565 10.836 355.169 11.394C354.791 11.934 354.602 12.564 354.602 13.284C354.602 14.148 354.863 14.832 355.385 15.336C355.925 15.84 356.798 16.209 358.004 16.443L360.812 17.037C362.63 17.415 363.971 17.991 364.835 18.765C365.717 19.521 366.158 20.556 366.158 21.87C366.158 22.662 365.996 23.391 365.672 24.057C365.348 24.723 364.88 25.299 364.268 25.785C363.656 26.253 362.918 26.613 362.054 26.865C361.19 27.117 360.218 27.243 359.138 27.243ZM377.769 27C377.373 27 377.067 26.901 376.851 26.703C376.653 26.487 376.554 26.181 376.554 25.785V9.18C376.554 8.784 376.653 8.487 376.851 8.289C377.067 8.073 377.373 7.965 377.769 7.965H382.98C386.058 7.965 388.434 8.775 390.108 10.395C391.782 12.015 392.619 14.373 392.619 17.469C392.619 19.017 392.403 20.385 391.971 21.573C391.557 22.743 390.936 23.733 390.108 24.543C389.28 25.353 388.272 25.965 387.084 26.379C385.896 26.793 384.528 27 382.98 27H377.769ZM378.768 25.11H382.818C384.078 25.11 385.167 24.948 386.085 24.624C387.021 24.3 387.795 23.823 388.407 23.193C389.037 22.563 389.505 21.771 389.811 20.817C390.117 19.845 390.27 18.729 390.27 17.469C390.27 14.931 389.649 13.032 388.407 11.772C387.165 10.494 385.302 9.855 382.818 9.855H378.768V25.11ZM397.808 27C397.412 27 397.106 26.901 396.89 26.703C396.692 26.487 396.593 26.181 396.593 25.785V9.18C396.593 8.784 396.692 8.487 396.89 8.289C397.106 8.073 397.412 7.965 397.808 7.965H407.852C408.158 7.965 408.392 8.046 408.554 8.208C408.716 8.37 408.797 8.595 408.797 8.883C408.797 9.189 408.716 9.423 408.554 9.585C408.392 9.747 408.158 9.828 407.852 9.828H398.753V16.416H407.285C407.591 16.416 407.825 16.497 407.987 16.659C408.149 16.803 408.23 17.028 408.23 17.334C408.23 17.64 408.149 17.874 407.987 18.036C407.825 18.198 407.591 18.279 407.285 18.279H398.753V25.137H407.852C408.158 25.137 408.392 25.218 408.554 25.38C408.716 25.542 408.797 25.767 408.797 26.055C408.797 26.361 408.716 26.595 408.554 26.757C408.392 26.919 408.158 27 407.852 27H397.808ZM418.89 27.189C418.602 27.189 418.368 27.126 418.188 27C418.026 26.856 417.927 26.676 417.891 26.46C417.873 26.226 417.927 25.965 418.053 25.677L425.478 8.775C425.64 8.415 425.829 8.163 426.045 8.019C426.279 7.857 426.531 7.776 426.801 7.776C427.071 7.776 427.314 7.857 427.53 8.019C427.764 8.163 427.953 8.415 428.097 8.775L435.549 25.677C435.693 25.965 435.747 26.226 435.711 26.46C435.693 26.694 435.603 26.874 435.441 27C435.279 27.126 435.054 27.189 434.766 27.189C434.442 27.189 434.181 27.108 433.983 26.946C433.785 26.766 433.623 26.514 433.497 26.19L431.499 21.573L432.579 22.14H420.969L422.076 21.573L420.105 26.19C419.943 26.532 419.772 26.784 419.592 26.946C419.412 27.108 419.178 27.189 418.89 27.189ZM426.774 10.557L422.427 20.79L421.779 20.277H431.769L431.175 20.79L426.828 10.557H426.774ZM437.9 27.162C437.558 27.18 437.297 27.09 437.117 26.892C436.919 26.694 436.82 26.451 436.82 26.163C436.82 25.947 436.892 25.749 437.036 25.569C437.162 25.389 437.369 25.29 437.657 25.272L438.494 25.218C439.412 25.146 440.114 24.831 440.6 24.273C441.086 23.697 441.329 22.914 441.329 21.924V8.91C441.329 8.532 441.419 8.253 441.599 8.073C441.797 7.875 442.076 7.776 442.436 7.776C442.796 7.776 443.066 7.875 443.246 8.073C443.444 8.253 443.543 8.532 443.543 8.91V21.951C443.543 22.977 443.363 23.868 443.003 24.624C442.643 25.362 442.103 25.938 441.383 26.352C440.681 26.766 439.817 27.009 438.791 27.081L437.9 27.162ZM455.752 27.243C454.492 27.243 453.385 27.081 452.431 26.757C451.495 26.415 450.703 25.92 450.055 25.272C449.407 24.606 448.921 23.787 448.597 22.815C448.273 21.843 448.111 20.727 448.111 19.467V8.91C448.111 8.532 448.201 8.253 448.381 8.073C448.579 7.875 448.858 7.776 449.218 7.776C449.578 7.776 449.848 7.875 450.028 8.073C450.226 8.253 450.325 8.532 450.325 8.91V19.359C450.325 21.339 450.784 22.824 451.702 23.814C452.62 24.786 453.97 25.272 455.752 25.272C457.534 25.272 458.875 24.786 459.775 23.814C460.675 22.824 461.125 21.339 461.125 19.359V8.91C461.125 8.532 461.224 8.253 461.422 8.073C461.62 7.875 461.899 7.776 462.259 7.776C462.601 7.776 462.862 7.875 463.042 8.073C463.24 8.253 463.339 8.532 463.339 8.91V19.467C463.339 21.141 463.051 22.563 462.475 23.733C461.917 24.903 461.071 25.785 459.937 26.379C458.803 26.955 457.408 27.243 455.752 27.243ZM469.105 27C468.709 27 468.403 26.901 468.187 26.703C467.989 26.487 467.89 26.181 467.89 25.785V9.18C467.89 8.784 467.989 8.487 468.187 8.289C468.403 8.073 468.709 7.965 469.105 7.965H474.316C477.394 7.965 479.77 8.775 481.444 10.395C483.118 12.015 483.955 14.373 483.955 17.469C483.955 19.017 483.739 20.385 483.307 21.573C482.893 22.743 482.272 23.733 481.444 24.543C480.616 25.353 479.608 25.965 478.42 26.379C477.232 26.793 475.864 27 474.316 27H469.105ZM470.104 25.11H474.154C475.414 25.11 476.503 24.948 477.421 24.624C478.357 24.3 479.131 23.823 479.743 23.193C480.373 22.563 480.841 21.771 481.147 20.817C481.453 19.845 481.606 18.729 481.606 17.469C481.606 14.931 480.985 13.032 479.743 11.772C478.501 10.494 476.638 9.855 474.154 9.855H470.104V25.11ZM487.208 27.189C486.92 27.189 486.686 27.126 486.506 27C486.344 26.856 486.245 26.676 486.209 26.46C486.191 26.226 486.245 25.965 486.371 25.677L493.796 8.775C493.958 8.415 494.147 8.163 494.363 8.019C494.597 7.857 494.849 7.776 495.119 7.776C495.389 7.776 495.632 7.857 495.848 8.019C496.082 8.163 496.271 8.415 496.415 8.775L503.867 25.677C504.011 25.965 504.065 26.226 504.029 26.46C504.011 26.694 503.921 26.874 503.759 27C503.597 27.126 503.372 27.189 503.084 27.189C502.76 27.189 502.499 27.108 502.301 26.946C502.103 26.766 501.941 26.514 501.815 26.19L499.817 21.573L500.897 22.14H489.287L490.394 21.573L488.423 26.19C488.261 26.532 488.09 26.784 487.91 26.946C487.73 27.108 487.496 27.189 487.208 27.189ZM495.092 10.557L490.745 20.79L490.097 20.277H500.087L499.493 20.79L495.146 10.557H495.092Z" fill="url(#paint1_linear_243_33)"/>
<path d="M585.564 27C585.168 27 584.862 26.901 584.646 26.703C584.448 26.487 584.349 26.181 584.349 25.785V9.18C584.349 8.784 584.448 8.487 584.646 8.289C584.862 8.073 585.168 7.965 585.564 7.965H590.775C593.853 7.965 596.229 8.775 597.903 10.395C599.577 12.015 600.414 14.373 600.414 17.469C600.414 19.017 600.198 20.385 599.766 21.573C599.352 22.743 598.731 23.733 597.903 24.543C597.075 25.353 596.067 25.965 594.879 26.379C593.691 26.793 592.323 27 590.775 27H585.564ZM586.563 25.11H590.613C591.873 25.11 592.962 24.948 593.88 24.624C594.816 24.3 595.59 23.823 596.202 23.193C596.832 22.563 597.3 21.771 597.606 20.817C597.912 19.845 598.065 18.729 598.065 17.469C598.065 14.931 597.444 13.032 596.202 11.772C594.96 10.494 593.097 9.855 590.613 9.855H586.563V25.11ZM612.38 27.243C610.616 27.243 609.077 26.847 607.763 26.055C606.467 25.245 605.459 24.111 604.739 22.653C604.037 21.195 603.686 19.467 603.686 17.469C603.686 15.957 603.884 14.607 604.28 13.419C604.694 12.213 605.279 11.196 606.035 10.368C606.791 9.522 607.7 8.874 608.762 8.424C609.842 7.956 611.048 7.722 612.38 7.722C614.18 7.722 615.728 8.118 617.024 8.91C618.338 9.702 619.346 10.827 620.048 12.285C620.768 13.725 621.128 15.444 621.128 17.442C621.128 18.954 620.921 20.313 620.507 21.519C620.093 22.725 619.508 23.751 618.752 24.597C617.996 25.443 617.078 26.1 615.998 26.568C614.936 27.018 613.73 27.243 612.38 27.243ZM612.38 25.272C613.748 25.272 614.9 24.966 615.836 24.354C616.79 23.742 617.519 22.851 618.023 21.681C618.527 20.511 618.779 19.107 618.779 17.469C618.779 15.003 618.221 13.095 617.105 11.745C616.007 10.377 614.432 9.693 612.38 9.693C611.048 9.693 609.905 9.999 608.951 10.611C608.015 11.223 607.295 12.114 606.791 13.284C606.287 14.436 606.035 15.831 606.035 17.469C606.035 19.917 606.593 21.834 607.709 23.22C608.825 24.588 610.382 25.272 612.38 25.272ZM624.365 27.189C624.077 27.189 623.843 27.126 623.663 27C623.501 26.856 623.402 26.676 623.366 26.46C623.348 26.226 623.402 25.965 623.528 25.677L630.953 8.775C631.115 8.415 631.304 8.163 631.52 8.019C631.754 7.857 632.006 7.776 632.276 7.776C632.546 7.776 632.789 7.857 633.005 8.019C633.239 8.163 633.428 8.415 633.572 8.775L641.024 25.677C641.168 25.965 641.222 26.226 641.186 26.46C641.168 26.694 641.078 26.874 640.916 27C640.754 27.126 640.529 27.189 640.241 27.189C639.917 27.189 639.656 27.108 639.458 26.946C639.26 26.766 639.098 26.514 638.972 26.19L636.974 21.573L638.054 22.14H626.444L627.551 21.573L625.58 26.19C625.418 26.532 625.247 26.784 625.067 26.946C624.887 27.108 624.653 27.189 624.365 27.189ZM632.249 10.557L627.902 20.79L627.254 20.277H637.244L636.65 20.79L632.303 10.557H632.249ZM652.358 27.243C650.486 27.243 648.884 26.847 647.552 26.055C646.22 25.263 645.194 24.138 644.474 22.68C643.772 21.222 643.421 19.485 643.421 17.469C643.421 15.957 643.619 14.607 644.015 13.419C644.429 12.213 645.014 11.196 645.77 10.368C646.544 9.522 647.489 8.874 648.605 8.424C649.721 7.956 650.972 7.722 652.358 7.722C653.474 7.722 654.536 7.884 655.544 8.208C656.552 8.514 657.425 8.973 658.163 9.585C658.397 9.765 658.55 9.972 658.622 10.206C658.712 10.422 658.721 10.638 658.649 10.854C658.595 11.052 658.487 11.223 658.325 11.367C658.181 11.493 658.001 11.556 657.785 11.556C657.569 11.556 657.326 11.466 657.056 11.286C656.408 10.764 655.697 10.377 654.923 10.125C654.149 9.873 653.312 9.747 652.412 9.747C650.99 9.747 649.784 10.053 648.794 10.665C647.804 11.259 647.057 12.132 646.553 13.284C646.049 14.436 645.797 15.831 645.797 17.469C645.797 19.107 646.049 20.511 646.553 21.681C647.057 22.833 647.804 23.715 648.794 24.327C649.784 24.921 650.99 25.218 652.412 25.218C653.294 25.218 654.131 25.092 654.923 24.84C655.715 24.57 656.444 24.174 657.11 23.652C657.38 23.472 657.623 23.391 657.839 23.409C658.055 23.409 658.235 23.472 658.379 23.598C658.523 23.724 658.622 23.886 658.676 24.084C658.748 24.282 658.748 24.489 658.676 24.705C658.622 24.921 658.487 25.11 658.271 25.272C657.515 25.92 656.624 26.415 655.598 26.757C654.59 27.081 653.51 27.243 652.358 27.243ZM652.25 32.184C651.926 32.184 651.584 32.157 651.224 32.103C650.882 32.067 650.567 31.986 650.279 31.86C650.081 31.788 649.946 31.671 649.874 31.509C649.802 31.347 649.793 31.185 649.847 31.023C649.901 30.861 650 30.735 650.144 30.645C650.288 30.573 650.468 30.582 650.684 30.672C650.9 30.762 651.125 30.825 651.359 30.861C651.611 30.897 651.89 30.915 652.196 30.915C652.664 30.915 653.042 30.825 653.33 30.645C653.618 30.483 653.762 30.24 653.762 29.916C653.762 29.682 653.681 29.493 653.519 29.349C653.357 29.223 653.096 29.16 652.736 29.16C652.592 29.16 652.448 29.169 652.304 29.187C652.178 29.205 652.025 29.232 651.845 29.268C651.683 29.322 651.557 29.349 651.467 29.349C651.377 29.349 651.287 29.322 651.197 29.268C651.125 29.196 651.08 29.106 651.062 28.998C651.062 28.908 651.071 28.773 651.089 28.593L651.413 26.46H652.79L652.439 28.485L651.791 28.323C652.007 28.269 652.214 28.224 652.412 28.188C652.628 28.152 652.826 28.134 653.006 28.134C653.654 28.134 654.194 28.296 654.626 28.62C655.058 28.944 655.274 29.394 655.274 29.97C655.274 30.636 654.995 31.167 654.437 31.563C653.879 31.977 653.15 32.184 652.25 32.184ZM669.729 27.243C667.965 27.243 666.426 26.847 665.112 26.055C663.816 25.245 662.808 24.111 662.088 22.653C661.386 21.195 661.035 19.467 661.035 17.469C661.035 15.957 661.233 14.607 661.629 13.419C662.043 12.213 662.628 11.196 663.384 10.368C664.14 9.522 665.049 8.874 666.111 8.424C667.191 7.956 668.397 7.722 669.729 7.722C671.529 7.722 673.077 8.118 674.373 8.91C675.687 9.702 676.695 10.827 677.397 12.285C678.117 13.725 678.477 15.444 678.477 17.442C678.477 18.954 678.27 20.313 677.856 21.519C677.442 22.725 676.857 23.751 676.101 24.597C675.345 25.443 674.427 26.1 673.347 26.568C672.285 27.018 671.079 27.243 669.729 27.243ZM669.729 25.272C671.097 25.272 672.249 24.966 673.185 24.354C674.139 23.742 674.868 22.851 675.372 21.681C675.876 20.511 676.128 19.107 676.128 17.469C676.128 15.003 675.57 13.095 674.454 11.745C673.356 10.377 671.781 9.693 669.729 9.693C668.397 9.693 667.254 9.999 666.3 10.611C665.364 11.223 664.644 12.114 664.14 13.284C663.636 14.436 663.384 15.831 663.384 17.469C663.384 19.917 663.942 21.834 665.058 23.22C666.174 24.588 667.731 25.272 669.729 25.272ZM664.761 5.94C664.563 5.94 664.401 5.877 664.275 5.751C664.167 5.607 664.131 5.418 664.167 5.184C664.347 4.23 664.716 3.492 665.274 2.97C665.85 2.448 666.534 2.187 667.326 2.187C667.812 2.187 668.271 2.295 668.703 2.511C669.135 2.709 669.549 2.943 669.945 3.213C670.359 3.483 670.746 3.726 671.106 3.942C671.484 4.14 671.853 4.239 672.213 4.239C672.699 4.239 673.095 4.086 673.401 3.78C673.707 3.474 673.905 3.069 673.995 2.565C674.049 2.367 674.13 2.223 674.238 2.133C674.364 2.043 674.517 2.007 674.697 2.025C674.895 2.025 675.057 2.097 675.183 2.241C675.309 2.367 675.345 2.547 675.291 2.781C675.111 3.735 674.742 4.473 674.184 4.995C673.644 5.517 672.969 5.778 672.159 5.778C671.673 5.778 671.205 5.679 670.755 5.481C670.323 5.265 669.909 5.031 669.513 4.779C669.117 4.509 668.73 4.266 668.352 4.05C667.974 3.834 667.605 3.726 667.245 3.726C666.777 3.726 666.381 3.879 666.057 4.185C665.751 4.491 665.553 4.896 665.463 5.4C665.409 5.58 665.319 5.724 665.193 5.832C665.085 5.922 664.941 5.958 664.761 5.94ZM683.65 27C683.254 27 682.948 26.901 682.732 26.703C682.534 26.487 682.435 26.181 682.435 25.785V9.18C682.435 8.784 682.534 8.487 682.732 8.289C682.948 8.073 683.254 7.965 683.65 7.965H693.694C694 7.965 694.234 8.046 694.396 8.208C694.558 8.37 694.639 8.595 694.639 8.883C694.639 9.189 694.558 9.423 694.396 9.585C694.234 9.747 694 9.828 693.694 9.828H684.595V16.416H693.127C693.433 16.416 693.667 16.497 693.829 16.659C693.991 16.803 694.072 17.028 694.072 17.334C694.072 17.64 693.991 17.874 693.829 18.036C693.667 18.198 693.433 18.279 693.127 18.279H684.595V25.137H693.694C694 25.137 694.234 25.218 694.396 25.38C694.558 25.542 694.639 25.767 694.639 26.055C694.639 26.361 694.558 26.595 694.396 26.757C694.234 26.919 694 27 693.694 27H683.65ZM704.068 27.243C703.222 27.243 702.394 27.171 701.584 27.027C700.774 26.883 700.018 26.676 699.316 26.406C698.632 26.136 698.011 25.794 697.453 25.38C697.237 25.218 697.084 25.038 696.994 24.84C696.922 24.624 696.904 24.417 696.94 24.219C696.994 24.003 697.084 23.823 697.21 23.679C697.354 23.535 697.525 23.454 697.723 23.436C697.921 23.418 698.137 23.481 698.371 23.625C699.181 24.201 700.045 24.624 700.963 24.894C701.881 25.146 702.916 25.272 704.068 25.272C705.688 25.272 706.885 24.975 707.659 24.381C708.451 23.769 708.847 22.968 708.847 21.978C708.847 21.168 708.559 20.538 707.983 20.088C707.425 19.62 706.48 19.251 705.148 18.981L702.34 18.414C700.648 18.054 699.379 17.469 698.533 16.659C697.705 15.831 697.291 14.733 697.291 13.365C697.291 12.519 697.462 11.754 697.804 11.07C698.146 10.368 698.623 9.774 699.235 9.288C699.847 8.784 700.576 8.397 701.422 8.127C702.268 7.857 703.204 7.722 704.23 7.722C705.364 7.722 706.417 7.884 707.389 8.208C708.379 8.514 709.27 8.982 710.062 9.612C710.26 9.774 710.395 9.963 710.467 10.179C710.539 10.377 710.548 10.575 710.494 10.773C710.44 10.953 710.341 11.106 710.197 11.232C710.071 11.358 709.9 11.43 709.684 11.448C709.486 11.466 709.261 11.394 709.009 11.232C708.289 10.692 707.542 10.305 706.768 10.071C705.994 9.819 705.139 9.693 704.203 9.693C703.249 9.693 702.421 9.837 701.719 10.125C701.035 10.413 700.495 10.836 700.099 11.394C699.721 11.934 699.532 12.564 699.532 13.284C699.532 14.148 699.793 14.832 700.315 15.336C700.855 15.84 701.728 16.209 702.934 16.443L705.742 17.037C707.56 17.415 708.901 17.991 709.765 18.765C710.647 19.521 711.088 20.556 711.088 21.87C711.088 22.662 710.926 23.391 710.602 24.057C710.278 24.723 709.81 25.299 709.198 25.785C708.586 26.253 707.848 26.613 706.984 26.865C706.12 27.117 705.148 27.243 704.068 27.243Z" fill="url(#paint2_linear_243_33)"/>
<path d="M797.584 27.243C795.712 27.243 794.11 26.847 792.778 26.055C791.446 25.263 790.42 24.138 789.7 22.68C788.998 21.222 788.647 19.485 788.647 17.469C788.647 15.957 788.845 14.607 789.241 13.419C789.655 12.213 790.24 11.196 790.996 10.368C791.77 9.522 792.715 8.874 793.831 8.424C794.947 7.956 796.198 7.722 797.584 7.722C798.7 7.722 799.762 7.884 800.77 8.208C801.778 8.514 802.651 8.973 803.389 9.585C803.623 9.765 803.776 9.972 803.848 10.206C803.938 10.422 803.947 10.638 803.875 10.854C803.821 11.052 803.713 11.223 803.551 11.367C803.407 11.493 803.227 11.556 803.011 11.556C802.795 11.556 802.552 11.466 802.282 11.286C801.634 10.764 800.923 10.377 800.149 10.125C799.375 9.873 798.538 9.747 797.638 9.747C796.216 9.747 795.01 10.053 794.02 10.665C793.03 11.259 792.283 12.132 791.779 13.284C791.275 14.436 791.023 15.831 791.023 17.469C791.023 19.107 791.275 20.511 791.779 21.681C792.283 22.833 793.03 23.715 794.02 24.327C795.01 24.921 796.216 25.218 797.638 25.218C798.52 25.218 799.357 25.092 800.149 24.84C800.941 24.57 801.67 24.174 802.336 23.652C802.606 23.472 802.849 23.391 803.065 23.409C803.281 23.409 803.461 23.472 803.605 23.598C803.749 23.724 803.848 23.886 803.902 24.084C803.974 24.282 803.974 24.489 803.902 24.705C803.848 24.921 803.713 25.11 803.497 25.272C802.741 25.92 801.85 26.415 800.824 26.757C799.816 27.081 798.736 27.243 797.584 27.243ZM814.954 27.243C813.19 27.243 811.651 26.847 810.337 26.055C809.041 25.245 808.033 24.111 807.313 22.653C806.611 21.195 806.26 19.467 806.26 17.469C806.26 15.957 806.458 14.607 806.854 13.419C807.268 12.213 807.853 11.196 808.609 10.368C809.365 9.522 810.274 8.874 811.336 8.424C812.416 7.956 813.622 7.722 814.954 7.722C816.754 7.722 818.302 8.118 819.598 8.91C820.912 9.702 821.92 10.827 822.622 12.285C823.342 13.725 823.702 15.444 823.702 17.442C823.702 18.954 823.495 20.313 823.081 21.519C822.667 22.725 822.082 23.751 821.326 24.597C820.57 25.443 819.652 26.1 818.572 26.568C817.51 27.018 816.304 27.243 814.954 27.243ZM814.954 25.272C816.322 25.272 817.474 24.966 818.41 24.354C819.364 23.742 820.093 22.851 820.597 21.681C821.101 20.511 821.353 19.107 821.353 17.469C821.353 15.003 820.795 13.095 819.679 11.745C818.581 10.377 817.006 9.693 814.954 9.693C813.622 9.693 812.479 9.999 811.525 10.611C810.589 11.223 809.869 12.114 809.365 13.284C808.861 14.436 808.609 15.831 808.609 17.469C808.609 19.917 809.167 21.834 810.283 23.22C811.399 24.588 812.956 25.272 814.954 25.272ZM828.714 27.189C828.372 27.189 828.111 27.099 827.931 26.919C827.751 26.721 827.661 26.442 827.661 26.082V8.91C827.661 8.55 827.751 8.271 827.931 8.073C828.111 7.875 828.345 7.776 828.633 7.776C828.921 7.776 829.128 7.83 829.254 7.938C829.398 8.028 829.56 8.199 829.74 8.451L841.512 24.138H840.864V8.856C840.864 8.514 840.954 8.253 841.134 8.073C841.314 7.875 841.575 7.776 841.917 7.776C842.241 7.776 842.484 7.875 842.646 8.073C842.826 8.253 842.916 8.514 842.916 8.856V26.109C842.916 26.451 842.835 26.721 842.673 26.919C842.529 27.099 842.313 27.189 842.025 27.189C841.755 27.189 841.539 27.135 841.377 27.027C841.215 26.919 841.044 26.748 840.864 26.514L829.119 10.827H829.74V26.082C829.74 26.442 829.65 26.721 829.47 26.919C829.29 27.099 829.038 27.189 828.714 27.189ZM853.425 27.189C853.083 27.189 852.813 27.09 852.615 26.892C852.417 26.676 852.318 26.388 852.318 26.028V9.882H846.243C845.919 9.882 845.667 9.792 845.487 9.612C845.307 9.432 845.217 9.198 845.217 8.91C845.217 8.604 845.307 8.37 845.487 8.208C845.667 8.046 845.919 7.965 846.243 7.965H860.634C860.958 7.965 861.21 8.046 861.39 8.208C861.57 8.37 861.66 8.604 861.66 8.91C861.66 9.216 861.57 9.459 861.39 9.639C861.21 9.801 860.958 9.882 860.634 9.882H854.559V26.028C854.559 26.388 854.46 26.676 854.262 26.892C854.082 27.09 853.803 27.189 853.425 27.189ZM861.427 27.189C861.139 27.189 860.905 27.126 860.725 27C860.563 26.856 860.464 26.676 860.428 26.46C860.41 26.226 860.464 25.965 860.59 25.677L868.015 8.775C868.177 8.415 868.366 8.163 868.582 8.019C868.816 7.857 869.068 7.776 869.338 7.776C869.608 7.776 869.851 7.857 870.067 8.019C870.301 8.163 870.49 8.415 870.634 8.775L878.086 25.677C878.23 25.965 878.284 26.226 878.248 26.46C878.23 26.694 878.14 26.874 877.978 27C877.816 27.126 877.591 27.189 877.303 27.189C876.979 27.189 876.718 27.108 876.52 26.946C876.322 26.766 876.16 26.514 876.034 26.19L874.036 21.573L875.116 22.14H863.506L864.613 21.573L862.642 26.19C862.48 26.532 862.309 26.784 862.129 26.946C861.949 27.108 861.715 27.189 861.427 27.189ZM869.311 10.557L864.964 20.79L864.316 20.277H874.306L873.712 20.79L869.365 10.557H869.311ZM885.224 27.189C884.882 27.189 884.612 27.09 884.414 26.892C884.216 26.676 884.117 26.388 884.117 26.028V9.882H878.042C877.718 9.882 877.466 9.792 877.286 9.612C877.106 9.432 877.016 9.198 877.016 8.91C877.016 8.604 877.106 8.37 877.286 8.208C877.466 8.046 877.718 7.965 878.042 7.965H892.433C892.757 7.965 893.009 8.046 893.189 8.208C893.369 8.37 893.459 8.604 893.459 8.91C893.459 9.216 893.369 9.459 893.189 9.639C893.009 9.801 892.757 9.882 892.433 9.882H886.358V26.028C886.358 26.388 886.259 26.676 886.061 26.892C885.881 27.09 885.602 27.189 885.224 27.189ZM902.493 27.243C900.729 27.243 899.19 26.847 897.876 26.055C896.58 25.245 895.572 24.111 894.852 22.653C894.15 21.195 893.799 19.467 893.799 17.469C893.799 15.957 893.997 14.607 894.393 13.419C894.807 12.213 895.392 11.196 896.148 10.368C896.904 9.522 897.813 8.874 898.875 8.424C899.955 7.956 901.161 7.722 902.493 7.722C904.293 7.722 905.841 8.118 907.137 8.91C908.451 9.702 909.459 10.827 910.161 12.285C910.881 13.725 911.241 15.444 911.241 17.442C911.241 18.954 911.034 20.313 910.62 21.519C910.206 22.725 909.621 23.751 908.865 24.597C908.109 25.443 907.191 26.1 906.111 26.568C905.049 27.018 903.843 27.243 902.493 27.243ZM902.493 25.272C903.861 25.272 905.013 24.966 905.949 24.354C906.903 23.742 907.632 22.851 908.136 21.681C908.64 20.511 908.892 19.107 908.892 17.469C908.892 15.003 908.334 13.095 907.218 11.745C906.12 10.377 904.545 9.693 902.493 9.693C901.161 9.693 900.018 9.999 899.064 10.611C898.128 11.223 897.408 12.114 896.904 13.284C896.4 14.436 896.148 15.831 896.148 17.469C896.148 19.917 896.706 21.834 897.822 23.22C898.938 24.588 900.495 25.272 902.493 25.272ZM921.356 27.243C920.51 27.243 919.682 27.171 918.872 27.027C918.062 26.883 917.306 26.676 916.604 26.406C915.92 26.136 915.299 25.794 914.741 25.38C914.525 25.218 914.372 25.038 914.282 24.84C914.21 24.624 914.192 24.417 914.228 24.219C914.282 24.003 914.372 23.823 914.498 23.679C914.642 23.535 914.813 23.454 915.011 23.436C915.209 23.418 915.425 23.481 915.659 23.625C916.469 24.201 917.333 24.624 918.251 24.894C919.169 25.146 920.204 25.272 921.356 25.272C922.976 25.272 924.173 24.975 924.947 24.381C925.739 23.769 926.135 22.968 926.135 21.978C926.135 21.168 925.847 20.538 925.271 20.088C924.713 19.62 923.768 19.251 922.436 18.981L919.628 18.414C917.936 18.054 916.667 17.469 915.821 16.659C914.993 15.831 914.579 14.733 914.579 13.365C914.579 12.519 914.75 11.754 915.092 11.07C915.434 10.368 915.911 9.774 916.523 9.288C917.135 8.784 917.864 8.397 918.71 8.127C919.556 7.857 920.492 7.722 921.518 7.722C922.652 7.722 923.705 7.884 924.677 8.208C925.667 8.514 926.558 8.982 927.35 9.612C927.548 9.774 927.683 9.963 927.755 10.179C927.827 10.377 927.836 10.575 927.782 10.773C927.728 10.953 927.629 11.106 927.485 11.232C927.359 11.358 927.188 11.43 926.972 11.448C926.774 11.466 926.549 11.394 926.297 11.232C925.577 10.692 924.83 10.305 924.056 10.071C923.282 9.819 922.427 9.693 921.491 9.693C920.537 9.693 919.709 9.837 919.007 10.125C918.323 10.413 917.783 10.836 917.387 11.394C917.009 11.934 916.82 12.564 916.82 13.284C916.82 14.148 917.081 14.832 917.603 15.336C918.143 15.84 919.016 16.209 920.222 16.443L923.03 17.037C924.848 17.415 926.189 17.991 927.053 18.765C927.935 19.521 928.376 20.556 928.376 21.87C928.376 22.662 928.214 23.391 927.89 24.057C927.566 24.723 927.098 25.299 926.486 25.785C925.874 26.253 925.136 26.613 924.272 26.865C923.408 27.117 922.436 27.243 921.356 27.243Z" fill="url(#paint3_linear_243_33)"/>
<defs>
<linearGradient id="paint0_linear_243_33" x1="-3.02581" y1="3.50003" x2="181.924" y2="3.53638" gradientUnits="userSpaceOnUse">
<stop stop-color="#FDF435"/>
<stop offset="0.489583" stop-color="#9C5CD4"/>
<stop offset="1" stop-color="#2C2C2C"/>
</linearGradient>
<linearGradient id="paint1_linear_243_33" x1="265.447" y1="3.50003" x2="482.602" y2="3.55015" gradientUnits="userSpaceOnUse">
<stop stop-color="#FDF435"/>
<stop offset="0.489583" stop-color="#9C5CD4"/>
<stop offset="1" stop-color="#2C2C2C"/>
</linearGradient>
<linearGradient id="paint2_linear_243_33" x1="580.028" y1="3.50003" x2="700.567" y2="3.51547" gradientUnits="userSpaceOnUse">
<stop stop-color="#FDF435"/>
<stop offset="0.489583" stop-color="#9C5CD4"/>
<stop offset="1" stop-color="#2C2C2C"/>
</linearGradient>
<linearGradient id="paint3_linear_243_33" x1="784.847" y1="3.50003" x2="916.429" y2="3.51843" gradientUnits="userSpaceOnUse">
<stop stop-color="#FDF435"/>
<stop offset="0.489583" stop-color="#9C5CD4"/>
<stop offset="1" stop-color="#2C2C2C"/>
</linearGradient>
</defs>
</svg>
