<svg width="211" height="88" viewBox="0 0 211 88" fill="none" xmlns="http://www.w3.org/2000/svg">
<g id="Group 14">
<path id="Vector" d="M210 52.3311C210 53.7057 209.426 55.1441 208.146 56.6478C206.859 58.159 204.909 59.6745 202.302 61.1565C197.088 64.1194 189.468 66.8259 179.953 69.1134C160.94 73.684 134.616 76.5221 105.5 76.5221C76.3835 76.5221 50.06 73.684 31.0475 69.1134C21.5318 66.8259 13.9115 64.1194 8.69838 61.1565C6.09122 59.6745 4.14069 58.159 2.85429 56.6478C1.57432 55.1441 1 53.7057 1 52.3311C1 50.9566 1.57432 49.5182 2.85429 48.0145C4.14069 46.5033 6.09122 44.9877 8.69838 43.5058C13.9115 40.5429 21.5318 37.8364 31.0475 35.5489C50.06 30.9782 76.3835 28.1401 105.5 28.1401C134.616 28.1401 160.94 30.9782 179.953 35.5489C189.468 37.8364 197.088 40.5429 202.302 43.5058C204.909 44.9877 206.859 46.5033 208.146 48.0145C209.426 49.5182 210 50.9566 210 52.3311Z" stroke="url(#paint0_angular_105_241)"/>
<path id="Vector_2" d="M23.0615 14.835H72.7571V22.9631C60.31 20.157 50.9282 16.3832 30.7713 16.3832V46.0897C34.0224 42.0256 38.9455 40.4774 43.4971 41.445C48.1415 42.4127 52.3215 45.7994 57.1517 46.4768C60.0313 46.9606 63.4682 46.9606 64.2113 42.8965C65.6975 49.8635 62.818 53.6373 58.2664 54.3146C49.3491 55.4758 42.3824 44.6383 35.23 45.5091C33.0006 45.7994 30.7713 47.1541 30.7713 49.9603V87.4079H23.0615V14.835ZM110.144 57.3143V87.4079H102.434V57.3143L79.2122 14.835H88.1295L109.958 54.7017C117.297 41.2515 122.591 27.3175 125.657 14.835H133.366L110.144 57.3143ZM148.073 14.835L171.388 85.0856C178.261 62.0558 184.113 40.2839 188.479 14.835H196.189L172.131 87.4079H163.957L139.898 14.835H148.073Z" fill="url(#paint1_linear_105_241)"/>
<path id="Vector_3" d="M34.6719 0.925293H40.8838V1.94131C39.3279 1.59054 38.1552 1.11882 35.6356 1.11882V4.83214C36.042 4.32413 36.6574 4.1306 37.2263 4.25155C37.8069 4.37251 38.3294 4.79585 38.9332 4.88052C39.2931 4.941 39.7227 4.941 39.8156 4.43299C40.0014 5.30386 39.6414 5.77558 39.0725 5.86025C37.9578 6.0054 37.087 4.6507 36.1929 4.75956C35.9143 4.79585 35.6356 4.96519 35.6356 5.31596V9.99691H34.6719V0.925293ZM45.3046 0.925293C47.6385 0.925293 49.5195 2.95734 49.5195 5.4611C49.5195 7.96487 47.6385 9.99691 45.3046 9.99691C42.9824 9.99691 41.0898 7.96487 41.0898 5.4611C41.0898 2.95734 42.9824 0.925293 45.3046 0.925293ZM45.3046 1.11882C43.5165 1.11882 42.0535 3.06619 42.0535 5.4611C42.0535 7.8681 43.5165 9.81548 45.3046 9.81548C47.1044 9.81548 48.5557 7.8681 48.5557 5.4611C48.5557 3.06619 47.1044 1.11882 45.3046 1.11882ZM50.8527 0.925293H55.0559C56.2983 0.925293 57.4362 1.80826 57.4362 3.27182C57.4362 4.85633 56.1822 5.60625 54.8004 5.60625C54.9978 5.70301 55.1488 5.84816 55.2649 6.02959C55.9732 7.02142 56.4376 8.36402 56.9833 9.28328C57.0878 9.46471 57.3549 9.87596 57.5407 9.99691H56.6466C56.3215 9.99691 56.1938 9.88805 56.0893 9.69452C55.4971 8.56964 55.0907 7.54153 54.394 6.40455C53.918 5.64253 53.3258 5.53367 52.6756 6.09007L52.5827 5.98121C53.2213 5.40062 53.8135 5.4611 54.5798 5.41272C55.857 5.34015 56.4608 4.49346 56.4608 3.27182C56.4608 2.00179 55.4507 1.11882 54.394 1.11882H51.8164V9.99691H50.8527V0.925293Z" fill="url(#paint2_linear_105_241)"/>
<path id="Vector_4" d="M94.2718 6.23521V9.99691H93.3081V6.23521L90.4053 0.925293H91.5199L94.2485 5.90864C95.1658 4.22736 95.8277 2.48561 96.2108 0.925293H97.1746L94.2718 6.23521ZM101.367 0.925293C103.701 0.925293 105.582 2.95734 105.582 5.4611C105.582 7.96487 103.701 9.99691 101.367 9.99691C99.0446 9.99691 97.152 7.96487 97.152 5.4611C97.152 2.95734 99.0446 0.925293 101.367 0.925293ZM101.367 1.11882C99.5787 1.11882 98.1158 3.06619 98.1158 5.4611C98.1158 7.8681 99.5787 9.81548 101.367 9.81548C103.167 9.81548 104.618 7.8681 104.618 5.4611C104.618 3.06619 103.167 1.11882 101.367 1.11882ZM112.72 0.925293H113.684V9.99691H112.72V8.35192C111.803 9.38004 110.352 9.99691 109.26 9.99691C107.681 9.99691 106.915 9.35585 106.915 7.68667V0.925293H107.879V7.68667C107.879 9.24699 108.749 9.755 109.829 9.63405C110.712 9.52519 111.733 9.02927 112.442 8.35192C112.628 8.17049 112.72 7.96487 112.72 7.69877V0.925293ZM115.011 0.925293H119.214C120.456 0.925293 121.594 1.80826 121.594 3.27182C121.594 4.85633 120.34 5.60625 118.959 5.60625C119.156 5.70301 119.307 5.84816 119.423 6.02959C120.131 7.02142 120.596 8.36402 121.142 9.28328C121.246 9.46471 121.513 9.87596 121.699 9.99691H120.805C120.48 9.99691 120.352 9.88805 120.247 9.69452C119.655 8.56964 119.249 7.54153 118.552 6.40455C118.076 5.64253 117.484 5.53367 116.834 6.09007L116.741 5.98121C117.38 5.40062 117.972 5.4611 118.738 5.41272C120.015 5.34015 120.619 4.49346 120.619 3.27182C120.619 2.00179 119.609 1.11882 118.552 1.11882H115.975V9.99691H115.011V0.925293Z" fill="url(#paint3_linear_105_241)"/>
<path id="Vector_5" d="M151.805 0.925293L154.719 9.70662C155.579 6.82789 156.31 4.10641 156.856 0.925293H157.82L154.812 9.99691H153.79L150.783 0.925293H151.805ZM162.278 0.925293C164.612 0.925293 166.493 2.95734 166.493 5.4611C166.493 7.96487 164.612 9.99691 162.278 9.99691C159.956 9.99691 158.063 7.96487 158.063 5.4611C158.063 2.95734 159.956 0.925293 162.278 0.925293ZM162.278 1.11882C160.49 1.11882 159.027 3.06619 159.027 5.4611C159.027 7.8681 160.49 9.81548 162.278 9.81548C164.077 9.81548 165.529 7.8681 165.529 5.4611C165.529 3.06619 164.077 1.11882 162.278 1.11882ZM167.826 9.99691V0.925293H168.789V9.99691H167.826ZM174.278 0.925293C174.905 0.925293 175.555 1.04625 176.124 1.31235C176.681 1.59054 177.401 2.14694 177.401 2.84848C177.401 3.39277 177.041 3.80402 176.391 3.79192C176.89 2.32837 175.729 1.11882 174.278 1.11882C172.408 1.11882 170.887 3.06619 170.887 5.4611C170.887 7.13028 171.63 8.58174 172.698 9.30747C174.347 10.4203 176.321 9.51309 177.401 7.97696V8.99299C176.611 9.64614 175.497 9.99691 174.278 9.99691C171.886 9.99691 169.923 7.97696 169.923 5.4611C169.923 2.95734 171.874 0.925293 174.278 0.925293ZM182.464 0.925293C183.091 0.925293 183.742 1.04625 184.311 1.31235C184.868 1.59054 185.588 2.14694 185.588 2.84848C185.588 3.39277 185.228 3.80402 184.578 3.79192C185.077 2.32837 183.916 1.11882 182.464 1.11882C180.758 1.11882 179.353 2.72752 179.109 4.82004C179.445 4.36041 179.956 4.21527 180.432 4.22736C181.303 4.22736 182.07 4.85633 182.882 4.96519C183.3 5.01357 183.8 4.941 183.904 4.43299C184.171 5.52158 183.405 6.04169 182.464 5.89654C181.489 5.7272 180.572 4.77166 179.747 4.77166C179.318 4.78375 179.074 5.01357 179.074 5.4611C179.086 7.13028 179.817 8.58174 180.885 9.30747C182.534 10.4203 184.508 9.51309 185.588 7.97696V8.99299C184.798 9.64614 183.684 9.99691 182.464 9.99691C180.072 9.99691 178.11 7.97696 178.11 5.4611C178.11 2.95734 180.061 0.925293 182.464 0.925293Z" fill="url(#paint4_linear_105_241)"/>
</g>
<defs>
<radialGradient id="paint0_angular_105_241" cx="0" cy="0" r="1" gradientUnits="userSpaceOnUse" gradientTransform="translate(105.5 52.3311) rotate(90) scale(24.191 104.5)">
<stop stop-color="#60CAFC"/>
<stop offset="0.5" stop-color="#F5A8B8"/>
<stop offset="1" stop-color="#5BCEFA"/>
</radialGradient>
<linearGradient id="paint1_linear_105_241" x1="109.625" y1="14.835" x2="109.625" y2="87.4079" gradientUnits="userSpaceOnUse">
<stop stop-color="#5BCEF2"/>
<stop offset="0.5" stop-color="#F5A8B8"/>
<stop offset="1" stop-color="#5CCDFA"/>
</linearGradient>
<linearGradient id="paint2_linear_105_241" x1="46.1063" y1="0.925293" x2="46.1063" y2="9.99691" gradientUnits="userSpaceOnUse">
<stop stop-color="#5BCEF2"/>
<stop offset="0.5" stop-color="#F5A8B8"/>
<stop offset="1" stop-color="#5CCDFA"/>
</linearGradient>
<linearGradient id="paint3_linear_105_241" x1="106.052" y1="0.925293" x2="106.052" y2="9.99691" gradientUnits="userSpaceOnUse">
<stop stop-color="#5BCEF2"/>
<stop offset="0.5" stop-color="#F5A8B8"/>
<stop offset="1" stop-color="#5CCDFA"/>
</linearGradient>
<linearGradient id="paint4_linear_105_241" x1="168.185" y1="0.925293" x2="168.185" y2="9.99691" gradientUnits="userSpaceOnUse">
<stop stop-color="#5BCEF2"/>
<stop offset="0.5" stop-color="#F5A8B8"/>
<stop offset="1" stop-color="#5CCDFA"/>
</linearGradient>
</defs>
</svg>
