<svg width="69" height="69" viewBox="0 0 69 69" fill="none" xmlns="http://www.w3.org/2000/svg">
<path d="M34.5001 6.45947C27.6733 6.45976 21.0694 8.88917 15.87 13.313C10.6705 17.7369 7.21489 23.8665 6.12134 30.6051C5.02778 37.3437 6.36768 44.2516 9.90129 50.0926C13.4349 55.9337 18.9316 60.3269 25.4079 62.486C26.8454 62.7376 27.3845 61.8751 27.3845 61.1204C27.3845 60.4376 27.3485 58.1735 27.3485 55.7657C20.1251 57.0954 18.2563 54.0049 17.6813 52.3877C17.0433 50.8148 16.0319 49.421 14.7345 48.3267C13.7282 47.7876 12.2907 46.4579 14.6985 46.422C15.6179 46.5218 16.4997 46.8417 17.2691 47.3547C18.0386 47.8676 18.6731 48.5585 19.1188 49.3688C19.512 50.0752 20.0408 50.6971 20.6747 51.1987C21.3087 51.7004 22.0354 52.0721 22.8133 52.2924C23.5911 52.5128 24.4048 52.5775 25.2077 52.4828C26.0106 52.3881 26.7869 52.1359 27.4922 51.7407C27.6167 50.2791 28.2681 48.9126 29.3251 47.8955C22.9282 47.1767 16.2438 44.6969 16.2438 33.7002C16.2034 30.8428 17.2578 28.0783 19.1907 25.9736C18.3118 23.4903 18.4146 20.7649 19.4782 18.3549C19.4782 18.3549 21.8859 17.6002 27.3845 21.3017C32.0888 20.0079 37.0551 20.0079 41.7595 21.3017C47.2578 17.5642 49.6657 18.3549 49.6657 18.3549C50.7294 20.7649 50.8323 23.4903 49.9532 25.9736C51.8919 28.0747 52.9472 30.8417 52.9001 33.7002C52.9001 44.7329 46.1797 47.1767 39.7829 47.8955C40.469 48.5909 40.9974 49.4258 41.3323 50.3436C41.6671 51.2613 41.8006 52.2404 41.7235 53.2142C41.7235 57.0596 41.6876 60.1501 41.6876 61.1205C41.6876 61.8752 42.2266 62.7736 43.6641 62.4861C50.129 60.3094 55.61 55.9059 59.1285 50.0619C62.6471 44.2178 63.9742 37.3135 62.8731 30.5814C61.772 23.8493 58.3142 17.7277 53.117 13.3092C47.9199 8.89072 41.3216 6.46302 34.5001 6.45947Z" fill="url(#paint0_linear_211_8)"/>
<defs>
<linearGradient id="paint0_linear_211_8" x1="34.5002" y1="6.45947" x2="34.5002" y2="62.541" gradientUnits="userSpaceOnUse">
<stop stop-color="#D70170"/>
<stop offset="0.510417" stop-color="#724E94"/>
<stop offset="1" stop-color="#0038A7"/>
</linearGradient>
</defs>
</svg>
