<svg width="70" height="70" viewBox="0 0 70 70" fill="none" xmlns="http://www.w3.org/2000/svg">
<path d="M38.6837 30.8703H38.7327V30.7934L38.6837 30.8703ZM38.6837 30.8703H38.7327V30.7934L38.6837 30.8703ZM38.6837 30.8703H38.7327V30.7934L38.6837 30.8703ZM38.6837 30.8703H38.7327V30.7934L38.6837 30.8703ZM38.6837 30.8703H38.7327V30.7934L38.6837 30.8703ZM38.6837 30.8703H38.7327V30.7934L38.6837 30.8703ZM38.6837 30.8703H38.7327V30.7934L38.6837 30.8703ZM38.6837 30.8703H38.7327V30.7934L38.6837 30.8703ZM38.6837 30.8703H38.7327V30.7934L38.6837 30.8703ZM38.6837 30.8703H38.7327V30.7934L38.6837 30.8703ZM38.6837 30.8703H38.7327V30.7934L38.6837 30.8703ZM38.6837 30.8703H38.7327V30.7934L38.6837 30.8703ZM38.6837 30.8703H38.7327V30.7934L38.6837 30.8703ZM38.6837 30.8703H38.7327V30.7934L38.6837 30.8703ZM38.6837 30.8703H38.7327V30.7934L38.6837 30.8703ZM38.6837 30.8703H38.7327V30.7934L38.6837 30.8703ZM35.5037 2.63477C29.1908 2.63477 23.0196 4.50677 17.7706 8.01405C12.5216 11.5213 8.4305 16.5064 6.01465 22.3387C3.59879 28.1711 2.96669 34.5889 4.19829 40.7806C5.42988 46.9722 8.46985 52.6596 12.9338 57.1235C17.3977 61.5874 23.0851 64.6274 29.2767 65.859C35.4683 67.0906 41.8861 66.4585 47.7185 64.0426C53.5509 61.6268 58.5359 57.5357 62.0432 52.2866C65.5505 47.0376 67.4225 40.8665 67.4225 34.5535C67.4132 26.091 64.0474 17.9777 58.0635 11.9938C52.0796 6.00985 43.9663 2.64402 35.5037 2.63477ZM27.5223 48.9229C27.5205 49.0644 27.463 49.1995 27.3622 49.2989C27.2615 49.3983 27.1257 49.4541 26.9841 49.4541H20.8338C20.693 49.4541 20.5578 49.3981 20.4582 49.2985C20.3586 49.1989 20.3027 49.0638 20.3027 48.9229V28.2564C20.3017 28.1861 20.3148 28.1163 20.3411 28.051C20.3673 27.9858 20.4063 27.9264 20.4557 27.8763C20.5052 27.8263 20.564 27.7865 20.6289 27.7594C20.6938 27.7322 20.7635 27.7183 20.8338 27.7183H26.9841C27.0548 27.7183 27.1248 27.7322 27.1901 27.7593C27.2554 27.7863 27.3147 27.8259 27.3647 27.8759C27.4147 27.9259 27.4543 27.9852 27.4813 28.0505C27.5084 28.1158 27.5223 28.1858 27.5223 28.2564V48.9229ZM23.6923 24.9576C22.9279 24.9576 22.1807 24.731 21.5451 24.3063C20.9095 23.8816 20.4141 23.278 20.1216 22.5718C19.8291 21.8655 19.7525 21.0884 19.9017 20.3387C20.0508 19.589 20.4189 18.9003 20.9594 18.3598C21.4999 17.8193 22.1886 17.4512 22.9383 17.3021C23.688 17.1529 24.4651 17.2295 25.1714 17.522C25.8776 17.8145 26.4812 18.3099 26.9059 18.9455C27.3306 19.5811 27.5572 20.3283 27.5572 21.0927C27.5582 21.6005 27.4588 22.1035 27.2649 22.5728C27.071 23.0422 26.7864 23.4686 26.4273 23.8277C26.0682 24.1868 25.6418 24.4714 25.1725 24.6653C24.7031 24.8592 24.2001 24.9586 23.6923 24.9576ZM53.5493 48.9229C53.5475 49.0644 53.49 49.1995 53.3893 49.2989C53.2885 49.3983 53.1527 49.4541 53.0112 49.4541H46.8609C46.7911 49.4541 46.722 49.4403 46.6576 49.4136C46.5932 49.387 46.5346 49.3478 46.4853 49.2985C46.4359 49.2492 46.3968 49.1906 46.3701 49.1262C46.3434 49.0617 46.3297 48.9927 46.3297 48.9229V37.8174C46.3297 34.896 45.2883 32.9251 42.6745 32.9251C41.86 32.9296 41.0668 33.186 40.4036 33.6589C39.7405 34.1319 39.2399 34.7983 38.9703 35.5669C38.786 36.135 38.7055 36.7316 38.7327 37.3282V48.9229C38.7327 49.0656 38.676 49.2025 38.575 49.3034C38.4741 49.4044 38.3372 49.4611 38.1945 49.4611H32.0442C31.9738 49.4611 31.9042 49.4471 31.8393 49.42C31.7744 49.3928 31.7155 49.3531 31.6661 49.303C31.6167 49.253 31.5777 49.1936 31.5514 49.1283C31.5251 49.0631 31.5121 48.9933 31.513 48.9229C31.513 45.9736 31.5899 31.6531 31.513 28.2844C31.5121 28.2141 31.5251 28.1442 31.5514 28.079C31.5777 28.0137 31.6167 27.9543 31.6661 27.9043C31.7155 27.8542 31.7744 27.8145 31.8393 27.7873C31.9042 27.7602 31.9738 27.7462 32.0442 27.7462H38.1805C38.2515 27.7453 38.3219 27.7586 38.3876 27.7853C38.4533 27.812 38.513 27.8516 38.5631 27.9018C38.6133 27.9519 38.6529 28.0116 38.6796 28.0773C38.7063 28.1431 38.7196 28.2135 38.7187 28.2844V30.8214C39.3724 29.6866 40.3245 28.7524 41.4715 28.1204C42.6186 27.4883 43.9169 27.1825 45.2254 27.236C49.971 27.236 53.5354 30.3392 53.5354 37.0206L53.5493 48.9229ZM38.7327 30.8913V30.8144L38.6837 30.8913H38.7327ZM38.6837 30.8913H38.7327V30.8144L38.6837 30.8913ZM38.6837 30.8913H38.7327V30.8144L38.6837 30.8913ZM38.6837 30.8913H38.7327V30.8144L38.6837 30.8913ZM38.6837 30.8913H38.7327V30.8144L38.6837 30.8913ZM38.6837 30.8913H38.7327V30.8144L38.6837 30.8913ZM38.6837 30.8913H38.7327V30.8144L38.6837 30.8913ZM38.6837 30.8913H38.7327V30.8144L38.6837 30.8913ZM38.6837 30.8913H38.7327V30.8144L38.6837 30.8913ZM38.6837 30.8913H38.7327V30.8144L38.6837 30.8913ZM38.6837 30.8913H38.7327V30.8144L38.6837 30.8913ZM38.6837 30.8913H38.7327V30.8144L38.6837 30.8913ZM38.6837 30.8913H38.7327V30.8144L38.6837 30.8913ZM38.6837 30.8913H38.7327V30.8144L38.6837 30.8913ZM38.6837 30.8913H38.7327V30.8144L38.6837 30.8913Z" fill="url(#paint0_linear_105_481)"/>
<defs>
<linearGradient id="paint0_linear_105_481" x1="35.5037" y1="2.63477" x2="35.5037" y2="66.4723" gradientUnits="userSpaceOnUse">
<stop stop-color="#D42B00"/>
<stop offset="0.473958" stop-color="#FF9A54"/>
<stop offset="0.916667" stop-color="#A30262"/>
</linearGradient>
</defs>
</svg>
