<svg width="71" height="70" viewBox="0 0 71 70" fill="none" xmlns="http://www.w3.org/2000/svg">
<path d="M35.0965 6.54248C28.1817 6.54277 21.4926 9.00352 16.2261 13.4844C10.9596 17.9654 7.45937 24.174 6.35171 30.9996C5.24405 37.8251 6.60123 44.822 10.1804 50.7385C13.7596 56.6549 19.3272 61.1047 25.8871 63.2917C27.3431 63.5465 27.8892 62.6729 27.8892 61.9084C27.8892 61.2168 27.8527 58.9235 27.8527 56.4847C20.5361 57.8315 18.6432 54.7011 18.0608 53.0631C17.4145 51.47 16.3901 50.0582 15.0759 48.9497C14.0567 48.4037 12.6007 47.0568 15.0395 47.0205C15.9707 47.1216 16.8639 47.4456 17.6433 47.9652C18.4227 48.4848 19.0654 49.1846 19.5169 50.0053C19.9151 50.7208 20.4507 51.3507 21.0928 51.8588C21.735 52.367 22.4711 52.7434 23.259 52.9666C24.0469 53.1898 24.871 53.2553 25.6843 53.1594C26.4975 53.0635 27.2839 52.8081 27.9982 52.4078C28.1243 50.9273 28.7841 49.5432 29.8547 48.513C23.3754 47.7849 16.6048 45.2732 16.6048 34.1346C16.5638 31.2404 17.6318 28.4402 19.5897 26.3083C18.6994 23.7929 18.8035 21.0325 19.8809 18.5913C19.8809 18.5913 22.3196 17.8269 27.8891 21.5762C32.6541 20.2657 37.6845 20.2657 42.4495 21.5762C48.0188 17.7905 50.4577 18.5913 50.4577 18.5913C51.5352 21.0324 51.6394 23.793 50.7489 26.3083C52.7127 28.4366 53.7816 31.2392 53.7338 34.1346C53.7338 45.3096 46.9268 47.7849 40.4475 48.513C41.1424 49.2174 41.6777 50.0631 42.0168 50.9926C42.356 51.9222 42.4912 52.9139 42.4131 53.9003C42.4131 57.7953 42.3767 60.9257 42.3767 61.9086C42.3767 62.673 42.9227 63.583 44.3787 63.2918C50.927 61.087 56.4787 56.6267 60.0426 50.7073C63.6066 44.7878 64.9508 37.7945 63.8355 30.9755C62.7202 24.1566 59.2178 17.956 53.9536 13.4806C48.6894 9.00508 42.006 6.54608 35.0965 6.54248Z" fill="url(#paint0_linear_105_478)"/>
<defs>
<linearGradient id="paint0_linear_105_478" x1="35.0966" y1="6.54248" x2="35.0966" y2="63.3474" gradientUnits="userSpaceOnUse">
<stop stop-color="#D42B00"/>
<stop offset="0.473958" stop-color="#FF9A54"/>
<stop offset="0.916667" stop-color="#A30262"/>
</linearGradient>
</defs>
</svg>
