<svg width="69" height="69" viewBox="0 0 69 69" fill="none" xmlns="http://www.w3.org/2000/svg">
<path d="M38.1919 30.4771H38.2402V30.4012L38.1919 30.4771ZM38.1919 30.4771H38.2402V30.4012L38.1919 30.4771ZM38.1919 30.4771H38.2402V30.4012L38.1919 30.4771ZM38.1919 30.4771H38.2402V30.4012L38.1919 30.4771ZM38.1919 30.4771H38.2402V30.4012L38.1919 30.4771ZM38.1919 30.4771H38.2402V30.4012L38.1919 30.4771ZM38.1919 30.4771H38.2402V30.4012L38.1919 30.4771ZM38.1919 30.4771H38.2402V30.4012L38.1919 30.4771ZM38.1919 30.4771H38.2402V30.4012L38.1919 30.4771ZM38.1919 30.4771H38.2402V30.4012L38.1919 30.4771ZM38.1919 30.4771H38.2402V30.4012L38.1919 30.4771ZM38.1919 30.4771H38.2402V30.4012L38.1919 30.4771ZM38.1919 30.4771H38.2402V30.4012L38.1919 30.4771ZM38.1919 30.4771H38.2402V30.4012L38.1919 30.4771ZM38.1919 30.4771H38.2402V30.4012L38.1919 30.4771ZM38.1919 30.4771H38.2402V30.4012L38.1919 30.4771ZM35.0524 2.60107C28.8198 2.60107 22.7272 4.44924 17.5451 7.91185C12.3629 11.3745 8.32388 16.296 5.93878 22.0541C3.55369 27.8123 2.92964 34.1483 4.14555 40.2611C5.36146 46.3739 8.36272 51.9889 12.7698 56.3959C17.1769 60.803 22.7918 63.8043 28.9046 65.0202C35.0174 66.2361 41.3535 65.612 47.1116 63.2269C52.8697 60.8419 57.7913 56.8028 61.2539 51.6207C64.7165 46.4385 66.5647 40.3459 66.5647 34.1134C66.5555 25.7586 63.2326 17.7486 57.3248 11.8409C51.4171 5.93317 43.4071 2.61021 35.0524 2.60107ZM27.1726 48.2998C27.1707 48.4395 27.114 48.5729 27.0145 48.671C26.9151 48.7692 26.781 48.8242 26.6413 48.8242H20.5693C20.4302 48.8242 20.2968 48.7689 20.1984 48.6706C20.1001 48.5722 20.0449 48.4389 20.0449 48.2998V27.8965C20.0439 27.827 20.0568 27.7581 20.0828 27.6937C20.1087 27.6293 20.1472 27.5706 20.196 27.5212C20.2448 27.4718 20.3029 27.4325 20.367 27.4057C20.431 27.379 20.4998 27.3652 20.5693 27.3652H26.6413C26.711 27.3652 26.7801 27.3789 26.8446 27.4056C26.909 27.4323 26.9676 27.4715 27.0169 27.5208C27.0663 27.5701 27.1054 27.6287 27.1321 27.6932C27.1588 27.7576 27.1726 27.8267 27.1726 27.8965V48.2998ZM23.3914 24.6397C22.6367 24.6397 21.899 24.4159 21.2715 23.9966C20.644 23.5773 20.1549 22.9814 19.8661 22.2842C19.5773 21.587 19.5017 20.8197 19.649 20.0796C19.7962 19.3394 20.1596 18.6595 20.6932 18.1259C21.2269 17.5922 21.9068 17.2288 22.6469 17.0816C23.3871 16.9344 24.1543 17.0099 24.8516 17.2987C25.5488 17.5875 26.1447 18.0766 26.564 18.7041C26.9833 19.3316 27.2071 20.0693 27.2071 20.824C27.208 21.3253 27.1099 21.8219 26.9185 22.2853C26.727 22.7486 26.446 23.1696 26.0915 23.5241C25.737 23.8786 25.316 24.1596 24.8526 24.3511C24.3893 24.5425 23.8927 24.6406 23.3914 24.6397ZM52.8682 48.2998C52.8663 48.4395 52.8096 48.5729 52.7101 48.671C52.6107 48.7692 52.4766 48.8242 52.3368 48.8242H46.2649C46.196 48.8242 46.1278 48.8106 46.0642 48.7843C46.0006 48.7579 45.9427 48.7193 45.894 48.6706C45.8453 48.6219 45.8067 48.5641 45.7804 48.5005C45.754 48.4368 45.7405 48.3686 45.7405 48.2998V37.3357C45.7405 34.4515 44.7124 32.5057 42.1318 32.5057C41.3276 32.5102 40.5446 32.7632 39.8899 33.2302C39.2352 33.6971 38.7409 34.355 38.4748 35.1139C38.2929 35.6747 38.2134 36.2637 38.2402 36.8527V48.2998C38.2402 48.4407 38.1842 48.5758 38.0845 48.6755C37.9849 48.7751 37.8498 48.8311 37.7089 48.8311H31.6369C31.5674 48.8311 31.4986 48.8173 31.4346 48.7905C31.3705 48.7637 31.3124 48.7245 31.2636 48.6751C31.2148 48.6256 31.1763 48.567 31.1504 48.5026C31.1244 48.4382 31.1115 48.3692 31.1125 48.2998C31.1125 45.388 31.1884 31.2499 31.1125 27.9241C31.1115 27.8546 31.1244 27.7857 31.1504 27.7213C31.1763 27.6569 31.2148 27.5982 31.2636 27.5488C31.3124 27.4994 31.3705 27.4601 31.4346 27.4333C31.4986 27.4066 31.5674 27.3928 31.6369 27.3928H37.6951C37.7651 27.3918 37.8346 27.405 37.8995 27.4313C37.9643 27.4577 38.0233 27.4968 38.0728 27.5463C38.1223 27.5958 38.1614 27.6548 38.1878 27.7197C38.2142 27.7845 38.2273 27.854 38.2264 27.9241V30.4288C38.8718 29.3084 39.8117 28.3861 40.9442 27.7621C42.0766 27.1381 43.3583 26.8362 44.6503 26.8891C49.3354 26.8891 52.8544 29.9527 52.8544 36.5491L52.8682 48.2998ZM38.2402 30.4978V30.4219L38.1919 30.4978H38.2402ZM38.1919 30.4978H38.2402V30.4219L38.1919 30.4978ZM38.1919 30.4978H38.2402V30.4219L38.1919 30.4978ZM38.1919 30.4978H38.2402V30.4219L38.1919 30.4978ZM38.1919 30.4978H38.2402V30.4219L38.1919 30.4978ZM38.1919 30.4978H38.2402V30.4219L38.1919 30.4978ZM38.1919 30.4978H38.2402V30.4219L38.1919 30.4978ZM38.1919 30.4978H38.2402V30.4219L38.1919 30.4978ZM38.1919 30.4978H38.2402V30.4219L38.1919 30.4978ZM38.1919 30.4978H38.2402V30.4219L38.1919 30.4978ZM38.1919 30.4978H38.2402V30.4219L38.1919 30.4978ZM38.1919 30.4978H38.2402V30.4219L38.1919 30.4978ZM38.1919 30.4978H38.2402V30.4219L38.1919 30.4978ZM38.1919 30.4978H38.2402V30.4219L38.1919 30.4978ZM38.1919 30.4978H38.2402V30.4219L38.1919 30.4978Z" fill="url(#paint0_linear_211_11)"/>
<defs>
<linearGradient id="paint0_linear_211_11" x1="35.0523" y1="2.60107" x2="35.0523" y2="65.6257" gradientUnits="userSpaceOnUse">
<stop stop-color="#D70170"/>
<stop offset="0.510417" stop-color="#724E94"/>
<stop offset="1" stop-color="#0038A7"/>
</linearGradient>
</defs>
</svg>
