<svg width="478" height="70" viewBox="0 0 478 70" fill="none" xmlns="http://www.w3.org/2000/svg">
<path d="M0 68V0.499995H7.47V66.65C27 66.56 36.09 63.14 48.15 60.53V68H0ZM60.9455 35.33C65.6255 39.83 72.9155 43.52 79.4855 41.81C89.0255 39.38 87.2255 24.44 75.7955 24.44C68.8655 24.44 63.4655 29.21 60.9455 35.33ZM78.2255 44.96C71.7455 44.33 64.9955 41 60.4055 36.77C56.4455 48.83 62.5655 64.94 76.8755 65.21C82.9055 65.3 89.4755 62.6 92.5355 57.11L93.3455 57.65C89.2955 65.03 82.0955 68 74.8955 68C63.4655 68 51.8555 59.54 51.8555 45.5C51.8555 32.54 62.2055 23 74.8955 23C87.4955 23 93.2555 29.21 93.2555 34.97C93.3455 40.64 87.9455 45.95 78.2255 44.96ZM94.2384 23.09C101.078 23.09 106.928 17.51 106.928 10.94H108.368V23.09H117.008V24.44H108.368V58.37C108.368 64.67 113.138 66.83 117.548 62.42L118.538 63.41C116.108 65.84 112.328 68 108.818 68C105.758 68 103.778 66.74 102.518 64.85C101.168 62.69 100.898 59.99 100.898 57.47V24.44H94.2384V23.09ZM123.838 23H131.308V68H123.838V23ZM127.618 13.55C129.688 13.55 131.308 15.17 131.308 17.24C131.308 19.31 129.688 21.02 127.618 21.02C125.548 21.02 123.838 19.31 123.838 17.24C123.838 15.17 125.548 13.55 127.618 13.55ZM174.932 25.25C177.992 26.6 181.412 29.39 181.412 32.54C181.412 35.69 178.892 38.03 173.852 37.58C176.822 30.38 170.882 24.44 163.862 24.44C156.392 24.44 150.722 30.02 148.472 36.77C144.512 48.83 150.542 64.94 164.942 65.21C170.972 65.3 177.542 62.6 180.602 57.11L181.412 57.65C177.362 65.03 170.162 68 162.962 68C151.532 68 139.922 59.54 139.922 45.5C139.922 32.54 150.272 23 162.962 23C167.192 23 171.692 23.9 174.932 25.25ZM189.756 23H197.226V68H189.756V23ZM193.536 13.55C195.606 13.55 197.226 15.17 197.226 17.24C197.226 19.31 195.606 21.02 193.536 21.02C191.466 21.02 189.756 19.31 189.756 17.24C189.756 15.17 191.466 13.55 193.536 13.55ZM247.324 38.03V68H239.854V52.88C236.614 61.07 229.684 68 220.324 68C211.774 68 206.104 62.6 206.104 53.96C206.104 46.22 212.134 40.28 219.784 40.28C226.084 40.28 229.414 43.52 234.634 44.06C239.314 44.6 239.854 41.72 239.854 38.03C239.854 29.57 235.894 24.62 226.984 24.44C221.944 24.35 215.284 26.33 213.394 31.55C212.674 33.35 212.674 35.42 213.574 37.58C208.534 38.03 206.104 35.69 206.104 32.54C206.104 29.39 209.344 26.78 212.404 25.43C216.004 23.9 221.584 23 227.254 23C238.144 23.09 247.324 25.79 247.324 38.03ZM239.854 43.97C238.234 45.59 235.444 45.68 233.374 45.32C229.774 44.69 226.174 43.34 222.484 43.61C216.544 44.15 213.664 49.19 213.574 54.05C213.394 62.51 220.414 66.47 227.704 63.95C235.804 61.07 239.404 51.89 239.854 43.97ZM301.93 68C296.98 68 291.94 67.19 287.53 65.12C283.21 63.14 277.72 58.91 277.72 53.69C277.72 49.73 280.42 46.67 285.46 46.67C283.48 52.34 284.92 57.47 288.25 61.07C295.99 69.35 313.72 67.73 321.19 60.44C329.2 52.61 323.89 42.17 313.81 38.66C303.91 35.15 288.88 35.78 281.68 27.14C277.99 22.55 277.36 16.16 279.97 11.12C284.38 2.48 296.53 0.499995 305.26 0.499995C310.21 0.499995 315.16 1.4 319.66 3.38C323.98 5.45 329.47 9.59 329.47 14.81C329.47 18.86 326.77 21.92 321.73 21.83C323.53 16.79 322.54 12.11 319.84 8.6C315.25 2.56999 305.08 0.769997 296.8 2.66C290.68 4.01 284.11 7.97 283.48 14.72C282.76 22.28 290.14 25.52 297.07 27.32C305.44 29.39 316.87 29.75 323.71 35.33C332.62 42.53 332.89 56.12 322.72 62.87C316.78 66.83 308.5 68 301.93 68ZM347.205 35.33C351.885 39.83 359.175 43.52 365.745 41.81C375.285 39.38 373.485 24.44 362.055 24.44C355.125 24.44 349.725 29.21 347.205 35.33ZM364.485 44.96C358.005 44.33 351.255 41 346.665 36.77C342.705 48.83 348.825 64.94 363.135 65.21C369.165 65.3 375.735 62.6 378.795 57.11L379.605 57.65C375.555 65.03 368.355 68 361.155 68C349.725 68 338.115 59.54 338.115 45.5C338.115 32.54 348.465 23 361.155 23C373.755 23 379.515 29.21 379.515 34.97C379.605 40.64 374.205 45.95 364.485 44.96ZM387.422 23H394.892V26.87C400.472 24.62 408.302 23 415.052 23C421.892 23 428.642 24.53 428.642 32.99V68H421.172V32.99C421.172 27.5 418.202 25.25 414.512 24.71C408.662 23.9 399.932 26.96 394.892 30.65V68H387.422V23ZM477.509 38.03V68H470.039V52.88C466.799 61.07 459.869 68 450.509 68C441.959 68 436.289 62.6 436.289 53.96C436.289 46.22 442.319 40.28 449.969 40.28C456.269 40.28 459.599 43.52 464.819 44.06C469.499 44.6 470.039 41.72 470.039 38.03C470.039 29.57 466.079 24.62 457.169 24.44C452.129 24.35 445.469 26.33 443.579 31.55C442.859 33.35 442.859 35.42 443.759 37.58C438.719 38.03 436.289 35.69 436.289 32.54C436.289 29.39 439.529 26.78 442.589 25.43C446.189 23.9 451.769 23 457.439 23C468.329 23.09 477.509 25.79 477.509 38.03ZM470.039 43.97C468.419 45.59 465.629 45.68 463.559 45.32C459.959 44.69 456.359 43.34 452.669 43.61C446.729 44.15 443.849 49.19 443.759 54.05C443.579 62.51 450.599 66.47 457.889 63.95C465.989 61.07 469.589 51.89 470.039 43.97Z" fill="url(#paint0_radial_98_40)"/>
<defs>
<radialGradient id="paint0_radial_98_40" cx="0" cy="0" r="1" gradientUnits="userSpaceOnUse" gradientTransform="translate(250 60.5) rotate(90) scale(60.5 250)">
<stop stop-color="#D6006F"/>
<stop offset="0.53125" stop-color="#724E94"/>
<stop offset="1" stop-color="#0038A7"/>
</radialGradient>
</defs>
</svg>
