<svg width="64" height="64" viewBox="0 0 64 64" fill="none" xmlns="http://www.w3.org/2000/svg">
<path d="M34.9431 28.1103H34.9918V28.0338L34.9431 28.1103ZM34.9431 28.1103H34.9918V28.0338L34.9431 28.1103ZM34.9431 28.1103H34.9918V28.0338L34.9431 28.1103ZM34.9431 28.1103H34.9918V28.0338L34.9431 28.1103ZM34.9431 28.1103H34.9918V28.0338L34.9431 28.1103ZM34.9431 28.1103H34.9918V28.0338L34.9431 28.1103ZM34.9431 28.1103H34.9918V28.0338L34.9431 28.1103ZM34.9431 28.1103H34.9918V28.0338L34.9431 28.1103ZM34.9431 28.1103H34.9918V28.0338L34.9431 28.1103ZM34.9431 28.1103H34.9918V28.0338L34.9431 28.1103ZM34.9431 28.1103H34.9918V28.0338L34.9431 28.1103ZM34.9431 28.1103H34.9918V28.0338L34.9431 28.1103ZM34.9431 28.1103H34.9918V28.0338L34.9431 28.1103ZM34.9431 28.1103H34.9918V28.0338L34.9431 28.1103ZM34.9431 28.1103H34.9918V28.0338L34.9431 28.1103ZM34.9431 28.1103H34.9918V28.0338L34.9431 28.1103ZM31.7772 0C25.4923 0 19.3485 1.8637 14.1227 5.35542C8.89701 8.84714 4.82405 13.8101 2.41891 19.6166C0.0137682 25.4231 -0.615526 31.8124 0.610604 37.9766C1.83673 44.1408 4.86322 49.8029 9.30734 54.2471C13.7515 58.6912 19.4136 61.7177 25.5778 62.9438C31.742 64.1699 38.1313 63.5406 43.9378 61.1355C49.7443 58.7303 54.7072 54.6574 58.199 49.4316C61.6907 44.2059 63.5544 38.0621 63.5544 31.7772C63.5452 23.3522 60.1943 15.2749 54.2369 9.31749C48.2795 3.36011 40.2022 0.00920867 31.7772 0ZM23.8312 46.0828C23.8293 46.2237 23.7721 46.3582 23.6718 46.4572C23.5715 46.5562 23.4363 46.6117 23.2954 46.6116H17.1724C17.0321 46.6116 16.8976 46.5559 16.7984 46.4568C16.6993 46.3576 16.6436 46.2231 16.6436 46.0828V25.508C16.6426 25.438 16.6556 25.3685 16.6818 25.3035C16.708 25.2386 16.7468 25.1794 16.796 25.1296C16.8451 25.0798 16.9038 25.0402 16.9684 25.0132C17.033 24.9862 17.1023 24.9723 17.1724 24.9723H23.2954C23.3658 24.9723 23.4354 24.9861 23.5004 25.013C23.5654 25.04 23.6245 25.0794 23.6742 25.1292C23.724 25.1789 23.7635 25.238 23.7904 25.303C23.8173 25.368 23.8312 25.4377 23.8312 25.508V46.0828ZM20.0182 22.2239C19.2572 22.2239 18.5132 21.9982 17.8805 21.5754C17.2477 21.1526 16.7545 20.5516 16.4633 19.8486C16.1721 19.1455 16.0959 18.3718 16.2443 17.6254C16.3928 16.879 16.7593 16.1934 17.2974 15.6553C17.8355 15.1172 18.5211 14.7507 19.2675 14.6022C20.0139 14.4538 20.7876 14.53 21.4907 14.8212C22.1938 15.1124 22.7947 15.6056 23.2175 16.2384C23.6403 16.8711 23.866 17.6151 23.866 18.3761C23.8669 18.8816 23.768 19.3824 23.5749 19.8496C23.3819 20.3169 23.0985 20.7414 22.741 21.0989C22.3835 21.4564 21.959 21.7398 21.4917 21.9328C21.0245 22.1259 20.5237 22.2248 20.0182 22.2239ZM49.7428 46.0828C49.7409 46.2237 49.6837 46.3582 49.5834 46.4572C49.4831 46.5562 49.3479 46.6117 49.207 46.6116H43.084C43.0145 46.6116 42.9457 46.598 42.8816 46.5714C42.8174 46.5448 42.7591 46.5059 42.71 46.4568C42.6609 46.4077 42.622 46.3494 42.5954 46.2852C42.5688 46.2211 42.5551 46.1523 42.5551 46.0828V35.0266C42.5551 32.1181 41.5184 30.156 38.9161 30.156C38.1052 30.1605 37.3156 30.4157 36.6554 30.8865C35.9952 31.3574 35.4967 32.0209 35.2284 32.7861C35.0449 33.3516 34.9648 33.9456 34.9918 34.5395V46.0828C34.9918 46.2249 34.9354 46.3612 34.8349 46.4617C34.7344 46.5622 34.5981 46.6186 34.456 46.6186H28.333C28.263 46.6186 28.1936 46.6047 28.129 46.5777C28.0644 46.5507 28.0058 46.5111 27.9566 46.4613C27.9074 46.4114 27.8686 46.3523 27.8424 46.2873C27.8163 46.2224 27.8033 46.1529 27.8042 46.0828C27.8042 43.1466 27.8807 28.8896 27.8042 25.5359C27.8033 25.4658 27.8163 25.3963 27.8424 25.3314C27.8686 25.2664 27.9074 25.2073 27.9566 25.1574C28.0058 25.1076 28.0644 25.068 28.129 25.041C28.1936 25.014 28.263 25.0001 28.333 25.0001H34.4421C34.5127 24.9992 34.5828 25.0124 34.6483 25.039C34.7137 25.0656 34.7731 25.105 34.823 25.1549C34.873 25.2049 34.9124 25.2643 34.939 25.3297C34.9656 25.3952 34.9788 25.4652 34.9779 25.5359V28.0616C35.6287 26.9318 36.5766 26.0018 37.7185 25.3726C38.8605 24.7433 40.153 24.4388 41.4558 24.4922C46.1803 24.4922 49.7288 27.5815 49.7288 34.2334L49.7428 46.0828ZM34.9918 28.1312V28.0547L34.9431 28.1312H34.9918ZM34.9431 28.1312H34.9918V28.0547L34.9431 28.1312ZM34.9431 28.1312H34.9918V28.0547L34.9431 28.1312ZM34.9431 28.1312H34.9918V28.0547L34.9431 28.1312ZM34.9431 28.1312H34.9918V28.0547L34.9431 28.1312ZM34.9431 28.1312H34.9918V28.0547L34.9431 28.1312ZM34.9431 28.1312H34.9918V28.0547L34.9431 28.1312ZM34.9431 28.1312H34.9918V28.0547L34.9431 28.1312ZM34.9431 28.1312H34.9918V28.0547L34.9431 28.1312ZM34.9431 28.1312H34.9918V28.0547L34.9431 28.1312ZM34.9431 28.1312H34.9918V28.0547L34.9431 28.1312ZM34.9431 28.1312H34.9918V28.0547L34.9431 28.1312ZM34.9431 28.1312H34.9918V28.0547L34.9431 28.1312ZM34.9431 28.1312H34.9918V28.0547L34.9431 28.1312ZM34.9431 28.1312H34.9918V28.0547L34.9431 28.1312Z" fill="url(#paint0_linear_105_374)"/>
<defs>
<linearGradient id="paint0_linear_105_374" x1="31.7772" y1="0" x2="31.7772" y2="63.5544" gradientUnits="userSpaceOnUse">
<stop stop-color="#FDF435"/>
<stop offset="0.473958" stop-color="#9C5CD4"/>
<stop offset="0.916667" stop-color="#2C2C2C"/>
</linearGradient>
</defs>
</svg>
