<svg width="613" height="100" viewBox="0 0 613 100" fill="none" xmlns="http://www.w3.org/2000/svg">
<path d="M58.3 75H56.8C56.3 55.6 17.2 17.4 1.5 1.6C1.7 36.6 5.5 53.1 8.3 75H0V-5.96046e-06H11.1C26 15.3 43.6 32.3 56.1 51.1C54.9 30.2 52.1 16.7 50 -5.96046e-06H58.3V75ZM90.8898 25C104.09 25 114.79 36.2 114.79 50C114.79 63.8 104.09 75 90.8898 75C77.7898 75 67.0898 63.8 67.0898 50C67.0898 36.2 77.7898 25 90.8898 25ZM90.8898 26.6C82.3898 26.6 75.3898 37.1 75.3898 50C75.3898 63 82.3898 73.5 90.8898 73.5C99.4898 73.5 106.49 63 106.49 50C106.49 37.1 99.4898 26.6 90.8898 26.6ZM121.566 64C121.766 59.4 126.166 57.5 130.166 58.8C128.866 61.3 128.866 63.7 129.666 65.7C132.266 71.7 141.466 73.6 147.166 73.3C160.466 72.7 165.866 60.1 152.966 55.1C144.966 52 132.766 52.8 125.966 46.6C120.166 41.3 121.366 32.8 128.066 28.8C132.766 25.9 139.666 25 145.566 25C149.766 25 155.366 25.9 159.666 27.7C162.966 29.2 166.566 32.1 166.566 35.6C166.566 39.1 163.866 41.7 158.266 41.2C160.766 35.2 157.166 29.9 150.466 27.7C144.666 25.8 137.266 26.3 132.666 28.9C127.866 31.6 126.666 37.6 131.266 40.8C137.566 45.2 150.766 44.4 158.966 48.3C163.866 50.6 167.366 54.3 167.366 60.2C167.366 71.6 154.266 74.9 143.166 75C136.866 75.1 121.166 72.7 121.566 64ZM175.179 64C175.379 59.4 179.779 57.5 183.779 58.8C182.479 61.3 182.479 63.7 183.279 65.7C185.879 71.7 195.079 73.6 200.779 73.3C214.079 72.7 219.479 60.1 206.579 55.1C198.579 52 186.379 52.8 179.579 46.6C173.779 41.3 174.979 32.8 181.679 28.8C186.379 25.9 193.279 25 199.179 25C203.379 25 208.979 25.9 213.279 27.7C216.579 29.2 220.179 32.1 220.179 35.6C220.179 39.1 217.479 41.7 211.879 41.2C214.379 35.2 210.779 29.9 204.079 27.7C198.279 25.8 190.879 26.3 186.279 28.9C181.479 31.6 180.279 37.6 184.879 40.8C191.179 45.2 204.379 44.4 212.579 48.3C217.479 50.6 220.979 54.3 220.979 60.2C220.979 71.6 207.879 74.9 196.779 75C190.479 75.1 174.779 72.7 175.179 64ZM251.437 25C264.637 25 275.337 36.2 275.337 50C275.337 63.8 264.637 75 251.437 75C238.337 75 227.637 63.8 227.637 50C227.637 36.2 238.337 25 251.437 25ZM251.437 26.6C242.937 26.6 235.937 37.1 235.937 50C235.937 63 242.937 73.5 251.437 73.5C260.037 73.5 267.037 63 267.037 50C267.037 37.1 260.037 26.6 251.437 26.6ZM309.766 -5.96046e-06H345.966C356.666 -5.96046e-06 366.466 7.3 366.466 19.4C366.466 31.5 356.266 38.7 345.466 38.7H318.066V75H309.766V-5.96046e-06ZM318.066 1.6V37.2H340.366C352.366 37.2 358.066 29.9 358.066 19.4C358.066 8.9 349.366 1.6 340.266 1.6H318.066ZM374.902 25H383.202V29.3C391.802 25.3 404.802 25 412.402 25V33.4C406.402 31.3 391.702 26.6 383.202 31.2V75H374.902V25ZM439.523 25C452.723 25 463.423 36.2 463.423 50C463.423 63.8 452.723 75 439.523 75C426.423 75 415.723 63.8 415.723 50C415.723 36.2 426.423 25 439.523 25ZM439.523 26.6C431.023 26.6 424.023 37.1 424.023 50C424.023 63 431.023 73.5 439.523 73.5C448.123 73.5 455.123 63 455.123 50C455.123 37.1 448.123 26.6 439.523 26.6ZM480.273 25V82.6C480.273 91.8 478.373 100 465.873 100C460.073 100 455.573 97.4 452.573 92.9L453.873 92.1C455.973 95.2 459.773 97.2 463.473 96.9C471.173 96.4 471.973 88.7 471.973 82.6V25H480.273ZM476.073 14.5C478.373 14.5 480.273 16.4 480.273 18.7C480.273 21 478.373 22.8 476.073 22.8C473.773 22.8 471.973 21 471.973 18.7C471.973 16.4 473.773 14.5 476.073 14.5ZM499.163 38.7C504.363 43.7 512.463 47.8 519.763 45.9C530.363 43.2 528.363 26.6 515.663 26.6C507.963 26.6 501.963 31.9 499.163 38.7ZM518.363 49.4C511.163 48.7 503.663 45 498.563 40.3C494.163 53.7 500.963 71.6 516.863 71.9C523.563 72 530.863 69 534.263 62.9L535.163 63.5C530.663 71.7 522.663 75 514.663 75C501.963 75 489.062 65.6 489.062 50C489.062 35.6 500.563 25 514.663 25C528.663 25 535.063 31.9 535.063 38.3C535.163 44.6 529.163 50.5 518.363 49.4ZM536.155 25.1C543.755 25.1 550.255 18.9 550.255 11.6H551.855V25.1H561.455V26.6H551.855V64.3C551.855 71.3 557.155 73.7 562.055 68.8L563.155 69.9C560.455 72.6 556.255 75 552.355 75C548.955 75 546.755 73.6 545.355 71.5C543.855 69.1 543.555 66.1 543.555 63.3V26.6H536.155V25.1ZM588.448 25C601.648 25 612.348 36.2 612.348 50C612.348 63.8 601.648 75 588.448 75C575.348 75 564.648 63.8 564.648 50C564.648 36.2 575.348 25 588.448 25ZM588.448 26.6C579.948 26.6 572.948 37.1 572.948 50C572.948 63 579.948 73.5 588.448 73.5C597.048 73.5 604.048 63 604.048 50C604.048 37.1 597.048 26.6 588.448 26.6Z" fill="black"/>
</svg>
