<svg width="565" height="66" viewBox="0 0 565 66" fill="none" xmlns="http://www.w3.org/2000/svg">
<path d="M23.27 64C18.595 64 13.835 63.235 9.67 61.28C5.59 59.41 0.405 55.415 0.405 50.485C0.405 46.745 2.955 43.855 7.715 43.855C5.845 49.21 7.205 54.055 10.35 57.455C17.66 65.275 34.405 63.745 41.46 56.86C49.025 49.465 44.01 39.605 34.49 36.29C25.14 32.975 10.945 33.57 4.145 25.41C0.66 21.075 0.0649999 15.04 2.53 10.28C6.695 2.12 18.17 0.249995 26.415 0.249995C31.09 0.249995 35.765 1.1 40.015 2.97C44.095 4.925 49.28 8.835 49.28 13.765C49.28 17.59 46.73 20.48 41.97 20.395C43.67 15.635 42.735 11.215 40.185 7.9C35.85 2.205 26.245 0.504997 18.425 2.29C12.645 3.565 6.44 7.305 5.845 13.68C5.165 20.82 12.135 23.88 18.68 25.58C26.585 27.535 37.38 27.875 43.84 33.145C52.255 39.945 52.51 52.78 42.905 59.155C37.295 62.895 29.475 64 23.27 64ZM95.7113 35.695V64H88.6563V49.72C85.5963 57.455 79.0513 64 70.2113 64C62.1363 64 56.7812 58.9 56.7812 50.74C56.7812 43.43 62.4763 37.82 69.7013 37.82C75.6513 37.82 78.7963 40.88 83.7263 41.39C88.1463 41.9 88.6563 39.18 88.6563 35.695C88.6563 27.705 84.9163 23.03 76.5013 22.86C71.7413 22.775 65.4513 24.645 63.6663 29.575C62.9863 31.275 62.9863 33.23 63.8363 35.27C59.0763 35.695 56.7812 33.485 56.7812 30.51C56.7812 27.535 59.8413 25.07 62.7313 23.795C66.1313 22.35 71.4013 21.5 76.7563 21.5C87.0413 21.585 95.7113 24.135 95.7113 35.695ZM88.6563 41.305C87.1263 42.835 84.4913 42.92 82.5363 42.58C79.1363 41.985 75.7363 40.71 72.2513 40.965C66.6413 41.475 63.9213 46.235 63.8363 50.825C63.6663 58.815 70.2963 62.555 77.1813 60.175C84.8313 57.455 88.2313 48.785 88.6563 41.305ZM104.262 21.5H111.317V25.155C116.162 23.03 121.432 21.5 127.722 21.5C132.397 21.5 137.072 22.265 139.282 25.665C144.467 23.37 150.077 21.5 157.047 21.5C163.507 21.5 169.882 22.945 169.882 30.935V64H162.742V30.935C162.742 25.75 159.937 23.625 156.452 23.115C150.927 22.35 144.807 25.325 140.472 28.81C140.557 29.49 140.557 30.17 140.557 30.935V64H133.502V30.935C133.502 25.75 130.697 23.625 127.212 23.115C121.772 22.35 115.737 25.24 111.317 28.725V64H104.262V21.5ZM216.322 35.695V64H209.267V49.72C206.207 57.455 199.662 64 190.822 64C182.747 64 177.392 58.9 177.392 50.74C177.392 43.43 183.087 37.82 190.312 37.82C196.262 37.82 199.407 40.88 204.337 41.39C208.757 41.9 209.267 39.18 209.267 35.695C209.267 27.705 205.527 23.03 197.112 22.86C192.352 22.775 186.062 24.645 184.277 29.575C183.597 31.275 183.597 33.23 184.447 35.27C179.687 35.695 177.392 33.485 177.392 30.51C177.392 27.535 180.452 25.07 183.342 23.795C186.742 22.35 192.012 21.5 197.367 21.5C207.652 21.585 216.322 24.135 216.322 35.695ZM209.267 41.305C207.737 42.835 205.102 42.92 203.147 42.58C199.747 41.985 196.347 40.71 192.862 40.965C187.252 41.475 184.532 46.235 184.447 50.825C184.277 58.815 190.907 62.555 197.792 60.175C205.442 57.455 208.842 48.785 209.267 41.305ZM224.872 21.5H231.927V25.155C239.237 21.755 250.287 21.5 256.747 21.5V28.64C251.647 26.855 239.152 22.86 231.927 26.77V64H224.872V21.5ZM300.492 35.695V64H293.437V49.72C290.377 57.455 283.832 64 274.992 64C266.917 64 261.562 58.9 261.562 50.74C261.562 43.43 267.257 37.82 274.482 37.82C280.432 37.82 283.577 40.88 288.507 41.39C292.927 41.9 293.437 39.18 293.437 35.695C293.437 27.705 289.697 23.03 281.282 22.86C276.522 22.775 270.232 24.645 268.447 29.575C267.767 31.275 267.767 33.23 268.617 35.27C263.857 35.695 261.562 33.485 261.562 30.51C261.562 27.535 264.622 25.07 267.512 23.795C270.912 22.35 276.182 21.5 281.537 21.5C291.822 21.585 300.492 24.135 300.492 35.695ZM293.437 41.305C291.907 42.835 289.272 42.92 287.317 42.58C283.917 41.985 280.517 40.71 277.032 40.965C271.422 41.475 268.702 46.235 268.617 50.825C268.447 58.815 275.077 62.555 281.962 60.175C289.612 57.455 293.012 48.785 293.437 41.305ZM352.064 64C347.389 64 342.629 63.235 338.464 61.28C334.384 59.41 329.199 55.415 329.199 50.485C329.199 46.745 331.749 43.855 336.509 43.855C334.639 49.21 335.999 54.055 339.144 57.455C346.454 65.275 363.199 63.745 370.254 56.86C377.819 49.465 372.804 39.605 363.284 36.29C353.934 32.975 339.739 33.57 332.939 25.41C329.454 21.075 328.859 15.04 331.324 10.28C335.489 2.12 346.964 0.249995 355.209 0.249995C359.884 0.249995 364.559 1.1 368.809 2.97C372.889 4.925 378.074 8.835 378.074 13.765C378.074 17.59 375.524 20.48 370.764 20.395C372.464 15.635 371.529 11.215 368.979 7.9C364.644 2.205 355.039 0.504997 347.219 2.29C341.439 3.565 335.234 7.305 334.639 13.68C333.959 20.82 340.929 23.88 347.474 25.58C355.379 27.535 366.174 27.875 372.634 33.145C381.049 39.945 381.304 52.78 371.699 59.155C366.089 62.895 358.269 64 352.064 64ZM406.137 21.5C417.357 21.5 426.452 31.02 426.452 42.75C426.452 54.48 417.357 64 406.137 64C395.002 64 385.907 54.48 385.907 42.75C385.907 31.02 395.002 21.5 406.137 21.5ZM406.137 22.86C398.912 22.86 392.962 31.785 392.962 42.75C392.962 53.8 398.912 62.725 406.137 62.725C413.447 62.725 419.397 53.8 419.397 42.75C419.397 31.785 413.447 22.86 406.137 22.86ZM472.733 64H465.678V60.345C460.408 62.47 453.013 64 446.638 64C440.178 64 433.803 62.64 433.803 54.565V21.5H440.858V54.565C440.858 59.75 443.663 61.875 447.148 62.385C452.673 63.235 460.918 60.26 465.678 56.775V21.5H472.733V64ZM481.117 21.5H519.537L489.957 62.725C507.552 62.555 513.162 58.985 519.537 56.945V64H481.117V62.81L509.847 22.86C492.252 23.03 487.407 26.515 481.117 28.64V21.5ZM564.124 35.695V64H557.069V49.72C554.009 57.455 547.464 64 538.624 64C530.549 64 525.194 58.9 525.194 50.74C525.194 43.43 530.889 37.82 538.114 37.82C544.064 37.82 547.209 40.88 552.139 41.39C556.559 41.9 557.069 39.18 557.069 35.695C557.069 27.705 553.329 23.03 544.914 22.86C540.154 22.775 533.864 24.645 532.079 29.575C531.399 31.275 531.399 33.23 532.249 35.27C527.489 35.695 525.194 33.485 525.194 30.51C525.194 27.535 528.254 25.07 531.144 23.795C534.544 22.35 539.814 21.5 545.169 21.5C555.454 21.585 564.124 24.135 564.124 35.695ZM557.069 41.305C555.539 42.835 552.904 42.92 550.949 42.58C547.549 41.985 544.149 40.71 540.664 40.965C535.054 41.475 532.334 46.235 532.249 50.825C532.079 58.815 538.709 62.555 545.594 60.175C553.244 57.455 556.644 48.785 557.069 41.305Z" fill="url(#paint0_radial_98_33)"/>
<defs>
<radialGradient id="paint0_radial_98_33" cx="0" cy="0" r="1" gradientUnits="userSpaceOnUse" gradientTransform="translate(334 43.5) rotate(90) scale(43.5 333)">
<stop stop-color="#D42B00"/>
<stop offset="0.359245" stop-color="#FF9A54"/>
<stop offset="1" stop-color="#A30262"/>
</radialGradient>
</defs>
</svg>
